<svg width="555" height="304" viewBox="0 0 555 304" fill="none" xmlns="http://www.w3.org/2000/svg">
<g clip-path="url(#clip0_68_174)">
<path d="M25.959 303.124L26.0741 302.501C26.0996 302.363 28.7196 288.7 38.5407 280.771C48.3622 272.842 61.8988 273.462 62.0341 273.469L62.6513 273.502L62.5362 274.126C62.5106 274.263 59.8906 287.927 50.0696 295.856C40.248 303.785 26.7115 303.164 26.5762 303.157L25.959 303.124ZM39.2067 281.642C30.9028 288.346 27.9129 299.307 27.2731 302.063C30.0308 302.075 41.1078 301.681 49.4036 294.984C57.6984 288.287 60.6949 277.321 61.3372 274.563C58.5779 274.551 47.5019 274.945 39.2067 281.642Z" fill="#3F3D56"/>
<path d="M43.1123 284.683C38.6132 296.594 26.7694 302.979 26.7694 302.979C26.7694 302.979 22.22 290.053 26.7191 278.142C31.2181 266.231 43.0619 259.846 43.0619 259.846C43.0619 259.846 47.6114 272.772 43.1123 284.683Z" fill="#3F3D56"/>
<path d="M538.709 303.157C538.574 303.164 525.037 303.785 515.215 295.856C505.394 287.927 502.774 274.263 502.749 274.126L502.634 273.502L503.251 273.469C503.386 273.462 516.923 272.842 526.744 280.771C536.566 288.7 539.185 302.363 539.211 302.501L539.326 303.125L538.709 303.157ZM503.948 274.563C504.59 277.321 507.587 288.287 515.881 294.984C524.177 301.682 535.254 302.075 538.012 302.063C537.372 299.307 534.382 288.346 526.078 281.642C517.783 274.945 506.707 274.551 503.948 274.563H503.948Z" fill="#3F3D56"/>
<path d="M522.173 284.683C526.672 296.594 538.516 302.979 538.516 302.979C538.516 302.979 543.065 290.053 538.566 278.142C534.067 266.231 522.223 259.846 522.223 259.846C522.223 259.846 517.674 272.772 522.173 284.683Z" fill="#3F3D56"/>
<path d="M318.099 300.277L310.233 296.873L304.837 256.344H232.977L227.128 296.707L220.091 300.323C219.754 300.496 219.484 300.781 219.324 301.132C219.165 301.482 219.125 301.878 219.212 302.254C219.298 302.631 219.506 302.966 219.801 303.207C220.096 303.447 220.462 303.577 220.838 303.577H317.451C317.837 303.577 318.211 303.44 318.509 303.189C318.808 302.938 319.013 302.588 319.089 302.2C319.166 301.811 319.109 301.407 318.928 301.057C318.748 300.706 318.455 300.431 318.099 300.277Z" fill="#CCCCCC"/>
<path d="M445.799 261.736H92.8045C90.9524 261.731 89.1776 260.972 87.8695 259.625C86.5613 258.277 85.8267 256.451 85.8267 254.548V203.388H452.777V254.548C452.777 256.451 452.042 258.277 450.734 259.625C449.426 260.972 447.651 261.731 445.799 261.736Z" fill="#CCCCCC"/>
<path d="M453.146 227.567H85.5044V8.66471C85.507 6.36745 86.396 4.16504 87.9766 2.54066C89.5571 0.916276 91.7 0.00257491 93.9352 0H444.715C446.95 0.0025734 449.093 0.91627 450.674 2.54065C452.254 4.16503 453.143 6.36744 453.146 8.66471V227.567Z" fill="#3F3D56"/>
<path d="M431.188 211.679H107.462C105.739 211.677 104.087 210.973 102.868 209.721C101.65 208.468 100.964 206.77 100.962 204.999V22.5678C100.964 20.7967 101.65 19.0988 102.868 17.8464C104.087 16.594 105.739 15.8895 107.462 15.8875H431.188C432.911 15.8895 434.563 16.594 435.782 17.8464C437 19.0988 437.685 20.7967 437.687 22.5678V204.999C437.685 206.77 437 208.468 435.782 209.721C434.563 210.973 432.911 211.677 431.188 211.679Z" fill="white"/>
<path d="M554.177 304H0.855926C0.669587 304.004 0.487172 303.945 0.337105 303.831C0.187037 303.718 0.0777444 303.556 0.0262563 303.372C-0.00588833 303.247 -0.00962977 303.115 0.0153164 302.988C0.0402626 302.861 0.0932296 302.742 0.170148 302.639C0.247067 302.537 0.345884 302.453 0.458994 302.396C0.572104 302.339 0.696493 302.309 0.822588 302.309H554.11C554.306 302.302 554.499 302.363 554.658 302.483C554.816 302.603 554.93 302.775 554.981 302.97C555.008 303.094 555.007 303.222 554.979 303.346C554.951 303.469 554.896 303.584 554.819 303.683C554.742 303.782 554.644 303.862 554.533 303.917C554.422 303.971 554.3 304 554.177 304Z" fill="#CCCCCC"/>
<path d="M171.632 84.8807H118.369V90.0218H171.632V84.8807Z" fill="#E5E5E5"/>
<path d="M171.632 97.3483H118.369V102.489H171.632V97.3483Z" fill="#E5E5E5"/>
<path d="M171.632 110.091H118.369V115.232H171.632V110.091Z" fill="#E5E5E5"/>
<path d="M171.632 122.834H118.369V127.975H171.632V122.834Z" fill="#E5E5E5"/>
<path d="M159.016 139.027H130.984V143.489H159.016V139.027Z" fill="#6C63FF"/>
<path d="M254.512 116.766H254.002V118.337H254.512V116.766Z" fill="#E5E5E5"/>
<path d="M254.512 155.142H254.002V156.712H254.512V155.142Z" fill="#E5E5E5"/>
<path d="M310.28 116.766H309.771V118.337H310.28V116.766Z" fill="#E5E5E5"/>
<path d="M310.28 155.142H309.771V156.712H310.28V155.142Z" fill="#E5E5E5"/>
<path d="M338.411 86.046H337.902V87.6164H338.411V86.046Z" fill="#E5E5E5"/>
<path d="M338.411 155.142H337.902V156.712H338.411V155.142Z" fill="#E5E5E5"/>
<path d="M366.262 73.4833H365.753V75.0536H366.262V73.4833Z" fill="#E5E5E5"/>
<path d="M366.262 155.142H365.753V156.712H366.262V155.142Z" fill="#E5E5E5"/>
<path d="M282.523 95.7299H282.014V97.3003H282.523V95.7299Z" fill="#E5E5E5"/>
<path d="M282.523 155.142H282.014V156.712H282.523V155.142Z" fill="#E5E5E5"/>
<path d="M188.279 15.8875H187.201V211.679H188.279V15.8875Z" fill="#E5E5E5"/>
<path d="M442.447 209.676C442.819 209.22 443.09 208.686 443.24 208.112C443.39 207.537 443.415 206.935 443.314 206.35C443.213 205.764 442.989 205.208 442.656 204.721C442.324 204.234 441.892 203.827 441.39 203.531L444.022 189.323L437.272 192.214L435.808 205.263C435.378 206.162 435.285 207.192 435.546 208.157C435.806 209.122 436.402 209.956 437.22 210.5C438.038 211.044 439.023 211.261 439.986 211.109C440.949 210.957 441.825 210.447 442.447 209.676Z" fill="#FFB7B7"/>
<path d="M476.101 296.854H470.386L467.667 274.197L476.102 274.198L476.101 296.854Z" fill="#FFB7B7"/>
<path d="M477.558 302.548L459.13 302.547V302.308C459.131 300.353 459.886 298.478 461.231 297.095C462.577 295.713 464.401 294.936 466.303 294.936H466.304L477.559 294.936L477.558 302.548Z" fill="#2F2E41"/>
<path d="M444.868 296.854H439.153L436.434 274.197L444.869 274.198L444.868 296.854Z" fill="#FFB7B7"/>
<path d="M444.927 302.548L426.499 302.547V302.308C426.499 300.353 427.254 298.478 428.6 297.095C429.945 295.713 431.769 294.936 433.671 294.936H433.672L444.927 294.936L444.927 302.548Z" fill="#2F2E41"/>
<path d="M444.399 201.163L438.805 214.409L434.19 290.541L445.845 290.062L449.028 253.769L458.847 221.444L464.492 257.482L466.823 289.103L476.466 289.533L480.308 201.163H444.399Z" fill="#2F2E41"/>
<path d="M472.362 135.803L456.149 136.22L446.63 141.242L446.108 178.296L440.171 203.879C440.171 203.879 477.264 206.503 482.392 202.67L476.332 173.444L484.46 141.858L472.362 135.803Z" fill="#6C63FF"/>
<path d="M448.362 141.822L446.63 141.242C446.63 141.242 441.136 144.866 441.659 153.627C441.659 153.627 441.453 158.161 441.649 161.178C441.875 164.639 435.123 199.029 435.123 199.029H444.913L449.108 167.886L448.362 141.822Z" fill="#6C63FF"/>
<path d="M484.206 210.155C483.834 209.699 483.563 209.165 483.413 208.591C483.263 208.016 483.238 207.414 483.339 206.829C483.439 206.243 483.664 205.687 483.996 205.2C484.329 204.713 484.761 204.306 485.263 204.01L482.631 189.803L489.381 192.693L490.845 205.742C491.274 206.641 491.368 207.671 491.107 208.636C490.847 209.602 490.251 210.435 489.433 210.979C488.614 211.523 487.63 211.74 486.667 211.588C485.704 211.436 484.828 210.926 484.206 210.155Z" fill="#FFB7B7"/>
<path d="M482.021 142.301L483.753 141.721C483.753 141.721 489.246 145.345 488.724 154.106C488.724 154.106 488.93 158.64 488.733 161.657C488.507 165.118 491.53 199.508 491.53 199.508H481.74L477.545 168.365L482.021 142.301Z" fill="#6C63FF"/>
<path d="M476.343 120.257C476.343 122.542 475.683 124.775 474.448 126.675C473.213 128.575 471.458 130.055 469.404 130.93C467.351 131.804 465.091 132.033 462.91 131.587C460.73 131.141 458.728 130.041 457.156 128.426C455.584 126.81 454.513 124.752 454.08 122.511C453.646 120.27 453.869 117.947 454.719 115.837C455.57 113.726 457.011 111.922 458.859 110.652C460.707 109.383 462.88 108.706 465.103 108.706C466.575 108.702 468.034 108.996 469.396 109.572C470.757 110.147 471.995 110.993 473.039 112.06C474.083 113.128 474.912 114.396 475.478 115.792C476.045 117.189 476.339 118.687 476.343 120.2C476.343 120.219 476.343 120.238 476.343 120.257Z" fill="#FFB7B7"/>
<path d="M453.901 104.741C455.217 101.831 457.765 102.407 459.994 103.393C462.816 102.75 465.499 100.824 468.54 101.963C471.535 106.44 481.59 105.123 479.451 112.411C479.448 114.158 482.648 113.141 482.09 116.001C483.785 121.506 475.97 131.931 471.484 129.736C472.593 127.646 475.128 122.899 471.284 122.428C463.014 130.336 470.431 107.369 460.04 114.048C456.6 117.284 451.89 107.978 453.901 104.741Z" fill="#2F2E41"/>
<path d="M249.607 145.801L247.55 145.942L246.465 146.016V143.324L247.889 143.06L248.771 142.895C248.771 142.895 251.498 134.606 254.116 136.113C256.734 137.619 249.607 145.801 249.607 145.801Z" fill="#714B4F"/>
<path opacity="0.1" d="M247.55 145.941L246.465 146.016V143.324L247.889 143.059C247.392 143.735 247.41 144.93 247.55 145.941Z" fill="black"/>
<path d="M282.485 101.98L277.867 155.107L257.109 161.021L236.41 155.107L231.798 101.98H282.485Z" fill="#E44D26"/>
<path d="M257.14 156.502L273.913 151.727L277.852 106.325H257.14V156.502Z" fill="#F16529"/>
<path d="M248.165 119.359H257.14V112.842H241.231L241.383 114.591L242.944 132.549H257.143V126.032H248.746L248.165 119.359ZM249.607 135.808H243.244L244.131 146.041L257.113 149.757H257.143V142.957H257.116L250.049 140.996L249.607 135.808Z" fill="#EBEBEB"/>
<path d="M236.516 87.5386H239.74V90.8096H242.689V87.5386H245.913V97.4483H242.689V94.1305H239.74V97.4483H236.516V87.5386ZM250.152 90.8252H247.313V87.5386H256.216V90.8252H253.376V97.4483H250.155V90.8252H250.152ZM257.631 87.5386H260.994L263.064 91.0213L265.131 87.5386H268.494V97.4483H265.282V92.537L263.064 96.0602H263.01L260.788 92.537V97.4483H257.631V87.5386ZM270.097 87.5386H273.321V94.171H277.867V97.4452H270.106V87.5386H270.097Z" fill="black"/>
<path d="M257.119 132.549H264.931L264.194 141.002L257.119 142.963V149.757L270.127 146.054L270.221 144.952L271.712 127.793L271.867 126.044H257.119V132.562V132.549ZM257.119 119.343V119.359H272.446L272.573 117.893L272.876 114.588L273.027 112.839H257.119V119.34V119.343Z" fill="white"/>
<path d="M350.793 160.69L330.186 154.82L325.595 101.921H376.053L371.457 154.813L350.793 160.69Z" fill="#264DE4"/>
<path d="M367.521 151.447L371.449 106.249H350.828V156.191L367.521 151.447Z" fill="#2965F1"/>
<path d="M336.134 125.86L336.701 132.346H350.838V125.86H336.134ZM334.996 112.728L335.57 119.215H350.835V112.728H334.984H334.996ZM350.835 142.709H350.808L343.772 140.757L343.322 135.582H336.969L337.854 145.769L350.793 149.467H350.823L350.835 142.709Z" fill="#EBEBEB"/>
<path d="M337.471 87.5386H345.121V90.8254H340.668V94.1121H345.121V97.3989H337.471V87.5386ZM346.663 87.5386H354.313V90.3966H349.851V90.9683H354.303V97.5418H346.651V94.5408H351.103V93.9692H346.651V87.5386H346.663ZM355.856 87.5386H363.506V90.3966H359.031V90.9683H363.484V97.5418H355.831V94.5408H360.284V93.9692H355.831V87.5386H355.856Z" fill="black"/>
<path d="M365.486 125.86L366.626 112.728H350.792V119.215H359.695L359.121 125.849H350.792V132.336H358.572L357.826 140.757L350.792 142.714V149.464L363.742 145.777L363.836 144.679L365.327 127.597L365.481 125.854L365.486 125.86Z" fill="white"/>
<path d="M441.767 75.9037L440.954 77.1812C440.954 77.1812 441.839 78.4587 441.924 78.6187C442.009 78.7787 444.507 78.54 444.507 78.54L444.728 77.5826L444.359 76.4651L441.767 75.9037Z" fill="#E6E6F0"/>
<g opacity="0.1">
<path opacity="0.1" d="M448.457 39.6552C448.409 39.6415 448.363 39.6236 448.318 39.6016C448.245 39.6407 448.17 39.6773 448.094 39.7113C448.217 39.7089 448.339 39.69 448.457 39.6552Z" fill="black"/>
<path opacity="0.1" d="M449.262 35.2609C449.179 35.1524 449.091 35.0484 448.998 34.9496C448.998 34.9496 448.501 35.46 447.274 35.5569C447.95 35.6259 448.632 35.5243 449.262 35.2609Z" fill="black"/>
<path opacity="0.1" d="M441.662 39.8339L441.677 39.9997C442.674 40.1896 443.688 40.2751 444.703 40.2549C443.678 40.2166 442.66 40.0756 441.662 39.8339Z" fill="black"/>
</g>
</g>
<defs>
<clipPath id="clip0_68_174">
<rect width="555" height="304" fill="white"/>
</clipPath>
</defs>
</svg>
