<svg width="176" height="32" viewBox="0 0 176 32" fill="none" xmlns="http://www.w3.org/2000/svg">
<path d="M168.254 10.4387C169.139 9.04083 170.245 7.94681 171.573 7.15669C172.901 6.33618 174.377 5.92592 176 5.92592V14.1766H173.92C172.031 14.1766 170.614 14.6021 169.67 15.453C168.726 16.2735 168.254 17.7322 168.254 19.829V31.6353H160.684V6.19942H168.254V10.4387Z" fill="#F8F7F7"/>
<path d="M156.744 6.19941V31.6353H149.175V28.1709C148.408 29.2953 147.36 30.207 146.032 30.9059C144.734 31.5745 143.288 31.9088 141.694 31.9088C139.806 31.9088 138.138 31.4833 136.692 30.6324C135.246 29.7512 134.125 28.49 133.328 26.849C132.531 25.2079 132.133 23.2782 132.133 21.0598V6.19941H139.658V20.0114C139.658 21.7132 140.086 23.0351 140.942 23.9772C141.797 24.9192 142.948 25.3903 144.394 25.3903C145.87 25.3903 147.036 24.9192 147.891 23.9772C148.747 23.0351 149.175 21.7132 149.175 20.0114V6.19941H156.744Z" fill="#F8F7F7"/>
<path d="M127.529 25.0256V31.6353H123.678C120.934 31.6353 118.794 30.9515 117.26 29.584C115.725 28.1861 114.958 25.9221 114.958 22.792V12.6724H111.948V6.19942H114.958V0H122.527V6.19942H127.485V12.6724H122.527V22.8832C122.527 23.6429 122.704 24.1899 123.058 24.5242C123.412 24.8585 124.003 25.0256 124.829 25.0256H127.529Z" fill="#F8F7F7"/>
<path d="M82.1568 18.8718C82.1568 16.2583 82.6289 13.9639 83.5733 11.9886C84.5471 10.0133 85.8603 8.49384 87.5129 7.43022C89.1655 6.36659 91.0099 5.83478 93.0461 5.83478C94.7872 5.83478 96.307 6.19945 97.6055 6.92879C98.9334 7.65814 99.9515 8.6154 100.66 9.80058V6.19945H108.229V31.6353H100.66V28.0342C99.922 29.2194 98.8892 30.1766 97.5612 30.906C96.2627 31.6353 94.743 32 93.0018 32C90.9951 32 89.1655 31.4682 87.5129 30.4046C85.8603 29.3105 84.5471 27.7759 83.5733 25.8006C82.6289 23.7949 82.1568 21.4853 82.1568 18.8718ZM100.66 18.9174C100.66 16.9725 100.129 15.4378 99.0662 14.3134C98.0334 13.189 96.7644 12.6268 95.2594 12.6268C93.7544 12.6268 92.4706 13.189 91.4083 14.3134C90.3754 15.4074 89.859 16.9269 89.859 18.8718C89.859 20.8167 90.3754 22.3666 91.4083 23.5214C92.4706 24.6458 93.7544 25.208 95.2594 25.208C96.7644 25.208 98.0334 24.6458 99.0662 23.5214C100.129 22.397 100.66 20.8623 100.66 18.9174Z" fill="#F8F7F7"/>
<path d="M49.4002 18.5071C49.4002 19.2365 49.356 19.9962 49.2674 20.7863H32.1366C32.2547 22.3666 32.7416 23.5822 33.5974 24.4331C34.4827 25.2536 35.5599 25.6638 36.8288 25.6638C38.7175 25.6638 40.0307 24.8433 40.7684 23.2023H48.8248C48.4116 24.8737 47.6591 26.378 46.5672 27.7151C45.5049 29.0522 44.1621 30.1007 42.5391 30.8604C40.916 31.6201 39.1011 32 37.0944 32C34.6745 32 32.5203 31.4682 30.6316 30.4046C28.743 29.3409 27.2674 27.8215 26.2051 25.8462C25.1427 23.8708 24.6115 21.5613 24.6115 18.9174C24.6115 16.2735 25.1279 13.9639 26.1608 11.9886C27.2232 10.0133 28.6987 8.49384 30.5874 7.43022C32.476 6.36659 34.645 5.83478 37.0944 5.83478C39.4847 5.83478 41.6095 6.35139 43.4686 7.38463C45.3278 8.41787 46.7738 9.89175 47.8067 11.8063C48.869 13.7208 49.4002 15.9544 49.4002 18.5071ZM41.6537 16.4559C41.6537 15.1187 41.2111 14.0551 40.3258 13.265C39.4405 12.4748 38.3338 12.0798 37.0059 12.0798C35.7369 12.0798 34.6598 12.4597 33.7745 13.2194C32.9187 13.9791 32.3875 15.0579 32.1809 16.4559H41.6537Z" fill="#F8F7F7"/>
<path d="M68.6117 5.92592C71.5037 5.92592 73.8055 6.89838 75.5171 8.8433C77.2582 10.7578 78.1288 13.4017 78.1288 16.7749V31.6353H70.6036V17.8233C70.6036 16.1215 70.1757 14.7996 69.3199 13.8575C68.4641 12.9155 67.3132 12.4444 65.8672 12.4444C64.4212 12.4444 63.2703 12.9155 62.4145 13.8575C61.5587 14.7996 61.1308 16.1215 61.1308 17.8233V31.6353H53.5614V6.19942H61.1308V9.57264C61.8981 8.44823 62.9309 7.56694 64.2294 6.92877C65.5278 6.2602 66.9886 5.92592 68.6117 5.92592Z" fill="#F8F7F7"/>
<path d="M11.3763 32C9.222 32 7.30382 31.6201 5.62173 30.8604C3.93964 30.1007 2.61167 29.0674 1.63783 27.7607C0.663984 26.4236 0.118042 24.9345 0 23.2935H7.48089C7.56942 24.1747 7.96781 24.8889 8.67606 25.4359C9.38431 25.9829 10.2549 26.2564 11.2877 26.2564C12.2321 26.2564 12.9551 26.0741 13.4567 25.7094C13.9879 25.3143 14.2535 24.8129 14.2535 24.2051C14.2535 23.4758 13.8846 22.944 13.1469 22.6097C12.4091 22.245 11.214 21.85 9.56137 21.4245C7.79074 20.9991 6.31523 20.5584 5.13481 20.1026C3.95439 19.6163 2.93628 18.8718 2.08048 17.869C1.22468 16.8357 0.796781 15.453 0.796781 13.7208C0.796781 12.2621 1.18042 10.9402 1.94769 9.755C2.74447 8.53943 3.89537 7.58216 5.4004 6.88321C6.93494 6.18425 8.74983 5.83478 10.8451 5.83478C13.9437 5.83478 16.3783 6.6249 18.1489 8.20515C19.949 9.78539 20.9819 11.8823 21.2475 14.4957H14.2535C14.1355 13.6144 13.7518 12.9155 13.1026 12.3989C12.4829 11.8823 11.6566 11.6239 10.6237 11.6239C9.73843 11.6239 9.05969 11.8063 8.58752 12.171C8.11536 12.5052 7.87927 12.9763 7.87927 13.5841C7.87927 14.3134 8.24816 14.8604 8.98592 15.2251C9.75319 15.5898 10.9336 15.9544 12.5272 16.3191C14.3568 16.8053 15.8471 17.2916 16.998 17.7778C18.1489 18.2336 19.1522 18.9934 20.008 20.057C20.8934 21.0902 21.3508 22.4881 21.3803 24.2507C21.3803 25.7398 20.9671 27.0769 20.1408 28.2621C19.3441 29.4169 18.1784 30.3286 16.6439 30.9972C15.1388 31.6657 13.383 32 11.3763 32Z" fill="#F8F7F7"/>
</svg>
