<svg width="21" height="28" viewBox="0 0 21 28" fill="none" xmlns="http://www.w3.org/2000/svg">
<path d="M10.78 27.2659C8.93066 27.2659 7.25866 26.9493 5.76399 26.3159C4.29466 25.6826 3.12932 24.7706 2.26799 23.5799C1.40665 22.3893 0.963322 20.9833 0.937988 19.3619H6.63799C6.71399 20.4513 7.09399 21.3126 7.77799 21.9459C8.48732 22.5793 9.44999 22.8959 10.666 22.8959C11.9073 22.8959 12.8827 22.6046 13.592 22.0219C14.3013 21.4139 14.656 20.6286 14.656 19.6659C14.656 18.8806 14.4153 18.2346 13.934 17.7279C13.4527 17.2213 12.8447 16.8286 12.11 16.5499C11.4007 16.2459 10.4127 15.9166 9.14599 15.5619C7.42332 15.0553 6.01732 14.5613 4.92799 14.0799C3.86399 13.5733 2.93932 12.8259 2.15399 11.8379C1.39399 10.8246 1.01399 9.48195 1.01399 7.80995C1.01399 6.23928 1.40666 4.87128 2.19199 3.70595C2.97732 2.54061 4.07932 1.65395 5.49799 1.04595C6.91666 0.412614 8.53799 0.0959473 10.362 0.0959473C13.098 0.0959473 15.3147 0.76728 17.012 2.10995C18.7347 3.42728 19.6847 5.27661 19.862 7.65795H14.01C13.9593 6.74595 13.5667 5.99861 12.832 5.41595C12.1227 4.80795 11.1727 4.50395 9.98199 4.50395C8.94332 4.50395 8.10732 4.76995 7.47399 5.30195C6.86599 5.83395 6.56199 6.60661 6.56199 7.61995C6.56199 8.32928 6.78999 8.92461 7.24599 9.40595C7.72732 9.86195 8.30999 10.2419 8.99399 10.5459C9.70332 10.8246 10.6913 11.1539 11.958 11.5339C13.6807 12.0406 15.0867 12.5473 16.176 13.0539C17.2653 13.5606 18.2027 14.3206 18.988 15.3339C19.7733 16.3473 20.166 17.6773 20.166 19.3239C20.166 20.7426 19.7987 22.0599 19.064 23.2759C18.3293 24.4919 17.2527 25.4673 15.834 26.2019C14.4153 26.9113 12.7307 27.2659 10.78 27.2659Z" fill="#010025"/>
</svg>
