<svg width="60" height="60" viewBox="0 0 60 60" fill="none" xmlns="http://www.w3.org/2000/svg">
<path d="M30 0C21.8499 0 20.8326 0.0375 17.6325 0.18C14.4375 0.33 12.2625 0.8325 10.35 1.575C8.3775 2.34 6.70251 3.3675 5.03499 5.03499C3.3675 6.70251 2.33751 8.37501 1.575 10.35C0.8325 12.2625 0.327501 14.4375 0.18 17.6325C0.03 20.8326 0 21.8499 0 30C0 38.1501 0.0375 39.1674 0.18 42.3675C0.33 45.5601 0.8325 47.7375 1.575 49.65C2.34 51.6201 3.3675 53.2974 5.03499 54.9651C6.70251 56.6301 8.37501 57.6624 10.35 58.425C12.265 59.1651 14.44 59.6724 17.6325 59.82C20.8326 59.97 21.8499 60 30 60C38.1501 60 39.1674 59.9625 42.3675 59.82C45.5601 59.67 47.7375 59.1651 49.65 58.425C51.6201 57.66 53.2974 56.6301 54.9651 54.9651C56.6301 53.2974 57.6624 51.6276 58.425 49.65C59.1651 47.7375 59.6724 45.5601 59.82 42.3675C59.97 39.1674 60 38.1501 60 30C60 21.8499 59.9625 20.8326 59.82 17.6325C59.67 14.44 59.1651 12.26 58.425 10.35C57.66 8.3775 56.6301 6.70251 54.9651 5.03499C53.2974 3.3675 51.6276 2.33751 49.65 1.575C47.7375 0.8325 45.5601 0.327501 42.3675 0.18C39.1674 0.03 38.1501 0 30 0ZM30 5.4C38.0076 5.4 38.9625 5.43999 42.1251 5.57751C45.0501 5.715 46.6374 6.20001 47.6925 6.615C49.0974 7.15749 50.0925 7.8075 51.1476 8.85501C52.1949 9.90501 52.845 10.9025 53.3874 12.3075C53.7975 13.3625 54.2874 14.95 54.42 17.875C54.5625 21.0399 54.5949 21.99 54.5949 30C54.5949 38.01 54.5574 38.9625 54.4101 42.1251C54.2574 45.0501 53.7699 46.6374 53.3574 47.6925C52.7976 49.0974 52.1601 50.0925 51.1101 51.1476C50.0625 52.1949 49.05 52.845 47.6601 53.3874C46.6101 53.7975 44.9976 54.2874 42.0726 54.42C38.8875 54.5625 37.95 54.5949 29.925 54.5949C21.8976 54.5949 20.9601 54.5574 17.7775 54.4101C14.85 54.2574 13.2375 53.7699 12.1875 53.3574C10.765 52.7976 9.7875 52.1601 8.73999 51.1101C7.6875 50.0625 7.01499 49.05 6.48999 47.6601C6.07749 46.6101 5.59251 44.9976 5.43999 42.0726C5.32749 38.9226 5.2875 37.95 5.2875 29.9625C5.2875 21.9726 5.32749 20.9976 5.43999 17.81C5.59251 14.885 6.07749 13.275 6.48999 12.225C7.01499 10.8 7.6875 9.825 8.73999 8.77251C9.7875 7.725 10.765 7.05 12.1875 6.52749C13.2375 6.1125 14.815 5.625 17.74 5.475C20.9274 5.3625 21.8649 5.325 29.8875 5.325L30 5.4ZM30 14.595C21.4875 14.595 14.595 21.495 14.595 30C14.595 38.5125 21.495 45.405 30 45.405C38.5125 45.405 45.405 38.505 45.405 30C45.405 21.4875 38.505 14.595 30 14.595ZM30 39.9999C24.4749 39.9999 20.0001 35.5251 20.0001 30C20.0001 24.4749 24.4749 20.0001 30 20.0001C35.5251 20.0001 39.9999 24.4749 39.9999 30C39.9999 35.5251 35.5251 39.9999 30 39.9999ZM49.6149 13.9875C49.6149 15.975 48 17.5875 46.0149 17.5875C44.0274 17.5875 42.4149 15.9725 42.4149 13.9875C42.4149 12.0025 44.0301 10.39 46.0149 10.39C47.9976 10.3875 49.6149 12.0025 49.6149 13.9875Z" fill="#010025"/>
</svg>
