<svg width="60" height="60" viewBox="0 0 60 60" fill="none" xmlns="http://www.w3.org/2000/svg">
<path d="M58.7451 15.4647C58.4061 14.1879 57.7376 13.0225 56.8065 12.0853C55.8756 11.1482 54.7146 10.472 53.4399 10.1247C48.7626 8.86218 30 8.86218 30 8.86218C30 8.86218 11.2375 8.86218 6.55749 10.1247C5.28352 10.4727 4.12324 11.149 3.19269 12.0861C2.26215 13.0233 1.59398 14.1883 1.255 15.4647C0 20.1747 0 29.9997 0 29.9997C0 29.9997 0 39.8247 1.255 44.5347C1.59397 45.8116 2.26243 46.9769 3.19348 47.914C4.12451 48.8511 5.28544 49.5273 6.56001 49.8747C11.2375 51.1371 30 51.1371 30 51.1371C30 51.1371 48.7626 51.1371 53.4426 49.8747C54.7172 49.5276 55.8782 48.8515 56.8093 47.9144C57.7404 46.9771 58.4087 45.8116 58.7475 44.5347C60 39.8247 60 29.9997 60 29.9997C60 29.9997 60 20.1747 58.7451 15.4647ZM23.8626 38.9196V21.0798L39.5451 29.9997L23.8626 38.9196Z" fill="#010025"/>
</svg>
