<svg width="503" height="444" viewBox="0 0 503 444" fill="none" xmlns="http://www.w3.org/2000/svg">
<g clip-path="url(#clip0_55_309)">
<path d="M453.524 231.065C453.59 286.005 432.635 338.832 395.065 378.44C392.8 380.843 390.474 383.188 388.087 385.476C384.45 388.982 380.691 392.352 376.809 395.586C340.499 425.903 295.17 442.939 248.134 443.946C246.567 443.982 244.994 444 243.415 444C205.903 444 158.722 423.695 115.905 395.586C112.363 393.261 108.852 390.882 105.373 388.448C103.746 387.322 102.128 386.179 100.517 385.02C84.0036 373.203 68.3287 360.226 53.6084 346.184C43.9704 337.017 34.9325 327.223 26.5523 316.865C-6.3468 275.739 -13.6032 238.682 33.3 231.065C38.8532 230.166 44.2427 229.205 49.4686 228.182C57.0385 226.708 64.283 225.115 71.2022 223.405C80.5225 221.11 89.2791 218.621 97.4718 215.938C100.228 215.039 102.92 214.122 105.55 213.187C144.428 199.348 170.449 181.303 188.162 161.722C191.166 158.408 193.935 155.054 196.471 151.66C200.349 146.493 203.872 141.063 207.015 135.406C211.353 127.546 214.996 119.314 217.903 110.804L218.062 110.336C232.155 69.1382 227.867 30.9251 243.415 18.1354C309.876 -36.5413 392.617 41.3234 431.454 133.146C433.411 137.773 435.252 142.428 436.977 147.111C437.752 149.203 438.499 151.298 439.219 153.398C441.111 158.87 442.828 164.355 444.37 169.855C444.961 171.953 445.525 174.049 446.061 176.142C446.635 178.402 447.185 180.655 447.693 182.909C451.472 199.408 453.524 215.68 453.524 231.065Z" fill="#F2F2F2"/>
<path d="M248.135 443.946C246.567 443.982 244.994 444 243.415 444C205.903 444 158.722 423.695 115.906 395.586C112.363 393.261 108.852 390.881 105.373 388.448L108.425 369.629L200.806 357.199L247.171 393.129L248.135 443.946Z" fill="#2F2E41"/>
<path d="M252.581 107.909H239.417C239.009 107.909 238.618 108.073 238.33 108.365C238.042 108.658 237.88 109.054 237.879 109.467V122.814C237.88 123.018 237.92 123.221 237.997 123.409C238.074 123.598 238.188 123.769 238.331 123.913C238.473 124.058 238.643 124.172 238.829 124.249C239.016 124.327 239.215 124.367 239.417 124.366H252.581C252.988 124.367 253.378 124.203 253.667 123.912C253.955 123.621 254.118 123.226 254.119 122.814V109.467C254.118 109.054 253.955 108.658 253.667 108.367C253.379 108.075 252.989 107.91 252.581 107.909Z" fill="white"/>
<path d="M252.581 130.653H239.417C239.009 130.653 238.618 130.818 238.33 131.11C238.042 131.402 237.88 131.798 237.879 132.212V145.559C237.88 145.763 237.92 145.965 237.997 146.154C238.074 146.342 238.188 146.514 238.331 146.658C238.473 146.802 238.643 146.916 238.829 146.994C239.016 147.072 239.215 147.111 239.417 147.111H252.581C252.988 147.111 253.378 146.948 253.667 146.657C253.955 146.366 254.118 145.971 254.119 145.559V132.212C254.118 131.799 253.955 131.403 253.667 131.111C253.379 130.819 252.989 130.654 252.581 130.653Z" fill="#E6E6E6"/>
<path d="M252.581 153.398H239.417C239.009 153.398 238.618 153.562 238.33 153.854C238.042 154.147 237.88 154.543 237.879 154.956V168.297C237.879 168.502 237.918 168.705 237.996 168.894C238.073 169.083 238.186 169.255 238.329 169.4C238.472 169.545 238.641 169.659 238.828 169.738C239.015 169.816 239.215 169.856 239.417 169.855H252.581C252.989 169.855 253.38 169.691 253.668 169.399C253.957 169.107 254.119 168.71 254.119 168.297V154.956C254.118 154.543 253.955 154.148 253.667 153.856C253.379 153.564 252.989 153.399 252.581 153.398Z" fill="#E6E6E6"/>
<path d="M254.095 177.425C254.03 177.066 253.843 176.741 253.566 176.507C253.29 176.273 252.941 176.144 252.581 176.142H239.417C239.009 176.142 238.618 176.307 238.33 176.599C238.042 176.891 237.88 177.287 237.879 177.701V191.042C237.879 191.246 237.918 191.449 237.996 191.638C238.073 191.828 238.186 192 238.329 192.144C238.472 192.289 238.641 192.404 238.828 192.482C239.015 192.56 239.215 192.6 239.417 192.6H252.581C252.989 192.6 253.38 192.435 253.668 192.143C253.957 191.851 254.119 191.455 254.119 191.042V177.701C254.12 177.608 254.112 177.516 254.095 177.425Z" fill="#E6E6E6"/>
<path d="M253.179 199.007C252.99 198.927 252.787 198.886 252.582 198.887H239.417C239.215 198.886 239.015 198.926 238.829 199.005C238.642 199.083 238.472 199.197 238.329 199.342C238.186 199.487 238.073 199.659 237.996 199.848C237.919 200.037 237.879 200.24 237.88 200.445V213.786C237.879 213.991 237.918 214.194 237.995 214.383C238.072 214.573 238.185 214.745 238.328 214.89C238.471 215.035 238.641 215.15 238.828 215.228C239.015 215.306 239.215 215.345 239.417 215.344H252.582C252.99 215.344 253.381 215.18 253.669 214.888C253.957 214.596 254.119 214.199 254.119 213.786V200.445C254.119 200.138 254.029 199.839 253.862 199.583C253.695 199.327 253.458 199.127 253.179 199.007Z" fill="#E6E6E6"/>
<path d="M280.235 107.909H267.071C266.663 107.909 266.272 108.073 265.984 108.365C265.695 108.658 265.533 109.054 265.533 109.467V122.814C265.533 123.018 265.573 123.221 265.651 123.409C265.728 123.598 265.842 123.769 265.984 123.913C266.127 124.058 266.297 124.172 266.483 124.249C266.669 124.327 266.869 124.367 267.071 124.366H280.235C280.642 124.367 281.032 124.203 281.32 123.912C281.609 123.621 281.771 123.226 281.773 122.814V109.467C281.771 109.054 281.609 108.658 281.321 108.367C281.033 108.075 280.642 107.91 280.235 107.909Z" fill="#E6E6E6"/>
<path d="M280.235 130.653H267.071C266.663 130.653 266.272 130.818 265.984 131.11C265.695 131.402 265.533 131.798 265.533 132.212V145.559C265.533 145.763 265.573 145.965 265.651 146.154C265.728 146.342 265.842 146.514 265.984 146.658C266.127 146.802 266.297 146.916 266.483 146.994C266.669 147.072 266.869 147.111 267.071 147.111H280.235C280.642 147.111 281.032 146.948 281.32 146.657C281.609 146.366 281.771 145.971 281.773 145.559V132.212C281.772 131.799 281.609 131.403 281.321 131.111C281.033 130.819 280.642 130.654 280.235 130.653Z" fill="#6C63FF"/>
<path d="M280.235 153.398H267.071C266.663 153.398 266.272 153.562 265.984 153.854C265.695 154.147 265.533 154.543 265.533 154.956V168.297C265.533 168.502 265.572 168.705 265.649 168.894C265.727 169.083 265.84 169.255 265.983 169.4C266.125 169.545 266.295 169.659 266.482 169.738C266.669 169.816 266.869 169.856 267.071 169.855H280.235C280.643 169.855 281.034 169.691 281.322 169.399C281.61 169.107 281.773 168.71 281.773 168.297V154.956C281.772 154.543 281.609 154.148 281.321 153.856C281.033 153.564 280.642 153.399 280.235 153.398Z" fill="#6C63FF"/>
<path d="M280.235 176.142H267.071C266.748 176.143 266.434 176.246 266.173 176.437C265.912 176.629 265.717 176.899 265.616 177.209C265.561 177.367 265.533 177.533 265.533 177.701V191.042C265.533 191.246 265.572 191.449 265.649 191.638C265.727 191.828 265.84 192 265.983 192.144C266.125 192.289 266.295 192.404 266.482 192.482C266.669 192.56 266.869 192.6 267.071 192.6H280.235C280.643 192.6 281.034 192.435 281.322 192.143C281.61 191.851 281.773 191.455 281.773 191.042V177.701C281.771 177.288 281.609 176.892 281.321 176.6C281.033 176.308 280.642 176.143 280.235 176.142Z" fill="#6C63FF"/>
<path d="M280.235 198.887H267.071C266.869 198.886 266.669 198.926 266.482 199.005C266.295 199.083 266.125 199.197 265.983 199.342C265.84 199.487 265.727 199.659 265.649 199.848C265.572 200.037 265.533 200.24 265.533 200.445V213.786C265.533 213.991 265.572 214.194 265.649 214.383C265.727 214.572 265.84 214.744 265.983 214.889C266.125 215.034 266.295 215.148 266.482 215.227C266.669 215.305 266.869 215.345 267.071 215.344H280.235C280.643 215.344 281.034 215.18 281.322 214.888C281.61 214.596 281.773 214.199 281.773 213.786V200.445C281.773 200.032 281.61 199.636 281.322 199.343C281.034 199.051 280.643 198.887 280.235 198.887Z" fill="#E6E6E6"/>
<path d="M307.888 107.909H294.724C294.316 107.909 293.925 108.073 293.637 108.365C293.349 108.658 293.187 109.054 293.187 109.467V122.814C293.187 123.018 293.227 123.221 293.304 123.409C293.381 123.598 293.495 123.769 293.638 123.913C293.78 124.058 293.95 124.172 294.136 124.249C294.323 124.327 294.522 124.367 294.724 124.366H307.888C308.295 124.367 308.686 124.203 308.974 123.912C309.262 123.621 309.425 123.226 309.426 122.814V109.467C309.425 109.054 309.262 108.658 308.974 108.367C308.686 108.075 308.296 107.91 307.888 107.909Z" fill="#6C63FF"/>
<path d="M307.888 130.653H294.724C294.316 130.653 293.925 130.818 293.637 131.11C293.349 131.402 293.187 131.798 293.187 132.212V145.559C293.187 145.763 293.227 145.965 293.304 146.154C293.381 146.342 293.495 146.514 293.638 146.658C293.78 146.802 293.95 146.916 294.136 146.994C294.323 147.072 294.522 147.111 294.724 147.111H307.888C308.295 147.111 308.686 146.948 308.974 146.657C309.262 146.366 309.425 145.971 309.426 145.559V132.212C309.425 131.799 309.262 131.403 308.974 131.111C308.686 130.819 308.296 130.654 307.888 130.653Z" fill="#6C63FF"/>
<path d="M307.888 153.398H294.724C294.316 153.398 293.925 153.562 293.637 153.854C293.349 154.147 293.187 154.543 293.187 154.956V168.297C293.186 168.502 293.226 168.705 293.303 168.894C293.38 169.083 293.493 169.255 293.636 169.4C293.779 169.545 293.948 169.659 294.135 169.738C294.322 169.816 294.522 169.856 294.724 169.855H307.888C308.296 169.855 308.687 169.691 308.975 169.399C309.264 169.107 309.426 168.71 309.426 168.297V154.956C309.425 154.543 309.262 154.148 308.974 153.856C308.686 153.564 308.296 153.399 307.888 153.398Z" fill="#E6E6E6"/>
<path d="M307.888 176.142H294.724C294.316 176.142 293.925 176.307 293.637 176.599C293.349 176.891 293.187 177.287 293.187 177.701V191.042C293.186 191.246 293.226 191.449 293.303 191.638C293.38 191.828 293.493 192 293.636 192.144C293.779 192.289 293.948 192.404 294.135 192.482C294.322 192.56 294.522 192.6 294.724 192.6H307.888C308.296 192.6 308.687 192.435 308.975 192.143C309.264 191.851 309.426 191.455 309.426 191.042V177.701C309.425 177.288 309.262 176.892 308.974 176.6C308.686 176.308 308.296 176.143 307.888 176.142Z" fill="#6C63FF"/>
<path d="M307.888 198.887H294.724C294.522 198.886 294.322 198.926 294.135 199.005C293.948 199.083 293.779 199.197 293.636 199.342C293.493 199.487 293.38 199.659 293.303 199.848C293.226 200.037 293.186 200.24 293.187 200.445V213.786C293.186 213.991 293.226 214.194 293.303 214.383C293.38 214.572 293.493 214.744 293.636 214.889C293.779 215.034 293.948 215.148 294.135 215.227C294.322 215.305 294.522 215.345 294.724 215.344H307.888C308.296 215.344 308.687 215.18 308.975 214.888C309.264 214.596 309.426 214.199 309.426 213.786V200.445C309.426 200.032 309.264 199.636 308.975 199.343C308.687 199.051 308.296 198.887 307.888 198.887Z" fill="#6C63FF"/>
<path d="M335.542 107.909H322.377C321.97 107.909 321.579 108.073 321.29 108.365C321.002 108.658 320.84 109.054 320.84 109.467V122.814C320.84 123.018 320.88 123.221 320.957 123.409C321.035 123.598 321.148 123.769 321.291 123.913C321.434 124.058 321.603 124.172 321.79 124.25C321.976 124.327 322.176 124.367 322.377 124.366H335.542C335.949 124.367 336.339 124.203 336.627 123.912C336.915 123.621 337.078 123.226 337.079 122.814V109.467C337.078 109.054 336.916 108.658 336.628 108.367C336.34 108.075 335.949 107.91 335.542 107.909Z" fill="#6C63FF"/>
<path d="M335.542 130.653H322.377C321.97 130.653 321.579 130.818 321.29 131.11C321.002 131.402 320.84 131.798 320.84 132.212V145.559C320.84 145.763 320.88 145.965 320.957 146.154C321.035 146.342 321.148 146.514 321.291 146.658C321.434 146.802 321.603 146.916 321.79 146.994C321.976 147.072 322.176 147.111 322.377 147.111H335.542C335.949 147.111 336.339 146.948 336.627 146.657C336.915 146.366 337.078 145.971 337.079 145.559V132.212C337.078 131.799 336.916 131.403 336.628 131.111C336.34 130.819 335.949 130.654 335.542 130.653Z" fill="white"/>
<path d="M335.542 153.398H322.377C321.97 153.398 321.579 153.562 321.29 153.854C321.002 154.147 320.84 154.543 320.84 154.956V168.297C320.839 168.502 320.879 168.705 320.956 168.894C321.033 169.083 321.146 169.255 321.289 169.4C321.432 169.545 321.602 169.659 321.789 169.738C321.975 169.816 322.175 169.856 322.377 169.855H335.542C335.95 169.855 336.341 169.691 336.629 169.399C336.917 169.107 337.079 168.71 337.079 168.297V154.956C337.078 154.543 336.916 154.148 336.628 153.856C336.34 153.564 335.949 153.399 335.542 153.398Z" fill="white"/>
<path d="M335.542 176.142H322.377C321.97 176.142 321.579 176.307 321.29 176.599C321.002 176.891 320.84 177.287 320.84 177.701V191.042C320.839 191.246 320.879 191.449 320.956 191.638C321.033 191.828 321.146 192 321.289 192.144C321.432 192.289 321.602 192.404 321.789 192.482C321.975 192.56 322.175 192.6 322.377 192.6H335.542C335.95 192.6 336.341 192.435 336.629 192.143C336.917 191.851 337.079 191.455 337.079 191.042V177.701C337.078 177.288 336.916 176.892 336.628 176.6C336.34 176.308 335.949 176.143 335.542 176.142Z" fill="#E6E6E6"/>
<path d="M335.542 198.887H322.377C322.175 198.886 321.975 198.926 321.789 199.005C321.602 199.083 321.432 199.197 321.289 199.342C321.146 199.487 321.033 199.659 320.956 199.848C320.879 200.037 320.839 200.24 320.84 200.445V213.786C320.839 213.991 320.879 214.194 320.956 214.383C321.033 214.572 321.146 214.744 321.289 214.889C321.432 215.034 321.602 215.148 321.789 215.227C321.975 215.305 322.175 215.345 322.377 215.344H335.542C335.95 215.344 336.341 215.18 336.629 214.888C336.917 214.596 337.079 214.199 337.079 213.786V200.445C337.079 200.032 336.917 199.636 336.629 199.343C336.341 199.051 335.95 198.887 335.542 198.887Z" fill="#6C63FF"/>
<path d="M363.195 107.909H350.025C349.618 107.91 349.228 108.075 348.941 108.367C348.654 108.659 348.493 109.055 348.493 109.467V122.814C348.493 123.226 348.655 123.621 348.942 123.912C349.229 124.203 349.619 124.366 350.025 124.366H363.195C363.602 124.367 363.992 124.203 364.281 123.912C364.569 123.621 364.731 123.226 364.733 122.814V109.467C364.732 109.054 364.569 108.658 364.281 108.367C363.993 108.075 363.603 107.91 363.195 107.909Z" fill="white"/>
<path d="M363.195 130.653H350.025C349.618 130.655 349.228 130.82 348.941 131.112C348.654 131.404 348.493 131.799 348.493 132.212V145.559C348.493 145.97 348.655 146.365 348.942 146.656C349.229 146.947 349.619 147.111 350.025 147.111H363.195C363.602 147.111 363.992 146.948 364.281 146.657C364.569 146.366 364.731 145.971 364.733 145.559V132.212C364.732 131.799 364.569 131.403 364.281 131.111C363.993 130.819 363.603 130.654 363.195 130.653Z" fill="white"/>
<path d="M363.195 153.398H350.025C349.618 153.399 349.228 153.564 348.941 153.856C348.654 154.148 348.493 154.544 348.493 154.956V168.297C348.493 168.501 348.532 168.704 348.609 168.893C348.685 169.082 348.798 169.253 348.94 169.398C349.082 169.543 349.251 169.658 349.438 169.736C349.624 169.815 349.823 169.855 350.025 169.855H363.195C363.603 169.855 363.994 169.691 364.282 169.399C364.571 169.107 364.733 168.71 364.733 168.297V154.956C364.732 154.543 364.569 154.148 364.281 153.856C363.993 153.564 363.603 153.399 363.195 153.398Z" fill="white"/>
<path d="M363.195 176.142H350.025C349.618 176.144 349.228 176.309 348.941 176.601C348.654 176.893 348.493 177.288 348.493 177.701V191.042C348.493 191.246 348.532 191.448 348.608 191.637C348.685 191.826 348.798 191.998 348.94 192.143C349.082 192.287 349.251 192.402 349.438 192.481C349.624 192.559 349.823 192.6 350.025 192.6H363.195C363.603 192.6 363.994 192.435 364.282 192.143C364.571 191.851 364.733 191.455 364.733 191.042V177.701C364.732 177.288 364.569 176.892 364.281 176.6C363.993 176.308 363.603 176.143 363.195 176.142Z" fill="#6C63FF"/>
<path d="M363.195 198.887H350.025C349.823 198.887 349.624 198.927 349.438 199.006C349.251 199.084 349.082 199.199 348.94 199.344C348.798 199.489 348.685 199.66 348.608 199.849C348.532 200.038 348.493 200.241 348.493 200.445V213.786C348.493 213.99 348.532 214.193 348.608 214.382C348.685 214.571 348.798 214.742 348.94 214.887C349.082 215.032 349.251 215.147 349.438 215.225C349.624 215.304 349.823 215.344 350.025 215.344H363.195C363.603 215.344 363.994 215.18 364.282 214.888C364.571 214.596 364.733 214.199 364.733 213.786V200.445C364.733 200.032 364.571 199.635 364.282 199.343C363.994 199.051 363.603 198.887 363.195 198.887Z" fill="#E6E6E6"/>
<path d="M390.849 107.909H377.679C377.272 107.91 376.882 108.075 376.595 108.367C376.308 108.659 376.147 109.055 376.147 109.467V122.814C376.147 123.226 376.308 123.621 376.596 123.912C376.883 124.203 377.272 124.366 377.679 124.366H390.849C391.256 124.367 391.646 124.203 391.934 123.912C392.222 123.621 392.385 123.226 392.387 122.814V109.467C392.385 109.054 392.223 108.659 391.935 108.367C391.647 108.075 391.256 107.91 390.849 107.909Z" fill="white"/>
<path d="M390.849 130.653H377.679C377.272 130.655 376.882 130.82 376.595 131.112C376.308 131.404 376.147 131.799 376.147 132.212V145.559C376.147 145.97 376.308 146.365 376.596 146.656C376.883 146.947 377.272 147.111 377.679 147.111H390.849C391.256 147.111 391.646 146.948 391.934 146.657C392.222 146.366 392.385 145.971 392.387 145.559V132.212C392.385 131.799 392.223 131.403 391.935 131.111C391.647 130.819 391.256 130.654 390.849 130.653Z" fill="white"/>
<path d="M390.849 153.398H377.679C377.272 153.399 376.882 153.564 376.595 153.856C376.308 154.148 376.147 154.544 376.147 154.956V168.297C376.146 168.501 376.186 168.704 376.262 168.893C376.339 169.082 376.452 169.253 376.594 169.398C376.736 169.543 376.905 169.658 377.091 169.736C377.278 169.815 377.477 169.855 377.679 169.855H390.849C391.257 169.855 391.648 169.691 391.936 169.399C392.224 169.107 392.386 168.71 392.387 168.297V154.956C392.385 154.543 392.223 154.148 391.935 153.856C391.647 153.564 391.256 153.399 390.849 153.398Z" fill="#6C63FF"/>
<path d="M390.849 176.142H377.679C377.272 176.144 376.882 176.309 376.595 176.601C376.308 176.893 376.147 177.288 376.147 177.701V191.042C376.146 191.246 376.186 191.448 376.262 191.637C376.339 191.826 376.452 191.998 376.594 192.143C376.736 192.287 376.905 192.402 377.091 192.481C377.278 192.559 377.477 192.6 377.679 192.6H390.849C391.257 192.6 391.648 192.435 391.936 192.143C392.224 191.851 392.386 191.455 392.387 191.042V177.701C392.385 177.288 392.223 176.892 391.935 176.6C391.647 176.308 391.256 176.144 390.849 176.142Z" fill="#E6E6E6"/>
<path d="M390.849 198.887H377.679C377.477 198.887 377.278 198.927 377.091 199.006C376.905 199.084 376.736 199.199 376.594 199.344C376.452 199.489 376.339 199.66 376.262 199.849C376.186 200.038 376.146 200.241 376.147 200.445V213.786C376.146 213.99 376.186 214.193 376.262 214.382C376.339 214.571 376.452 214.742 376.594 214.887C376.736 215.032 376.905 215.147 377.091 215.225C377.278 215.304 377.477 215.344 377.679 215.344H390.849C391.257 215.344 391.648 215.18 391.936 214.888C392.224 214.596 392.386 214.199 392.387 213.786V200.445C392.386 200.032 392.224 199.636 391.936 199.343C391.648 199.051 391.257 198.887 390.849 198.887Z" fill="white"/>
<path d="M418.502 107.909H405.332C404.925 107.91 404.536 108.075 404.248 108.367C403.961 108.659 403.8 109.055 403.8 109.467V122.814C403.8 123.226 403.962 123.621 404.249 123.912C404.536 124.203 404.926 124.366 405.332 124.366H418.502C418.909 124.367 419.299 124.203 419.588 123.912C419.876 123.621 420.038 123.226 420.04 122.814V109.467C420.039 109.054 419.876 108.659 419.588 108.367C419.3 108.075 418.91 107.91 418.502 107.909Z" fill="#6C63FF"/>
<path d="M418.502 130.653H405.332C404.925 130.655 404.535 130.82 404.248 131.112C403.961 131.404 403.8 131.799 403.8 132.212V145.559C403.8 145.97 403.962 146.365 404.249 146.656C404.536 146.947 404.926 147.111 405.332 147.111H418.502C418.909 147.111 419.299 146.948 419.588 146.657C419.876 146.366 420.038 145.971 420.04 145.559V132.212C420.039 131.799 419.876 131.403 419.588 131.111C419.3 130.819 418.91 130.654 418.502 130.653Z" fill="#6C63FF"/>
<path d="M418.502 153.398H405.332C404.925 153.399 404.535 153.564 404.248 153.856C403.961 154.148 403.8 154.544 403.8 154.956V168.297C403.8 168.501 403.839 168.704 403.916 168.893C403.992 169.082 404.105 169.253 404.247 169.398C404.39 169.543 404.559 169.658 404.745 169.736C404.931 169.815 405.13 169.855 405.332 169.855H418.502C418.91 169.855 419.301 169.691 419.589 169.399C419.878 169.107 420.04 168.71 420.04 168.297V154.956C420.039 154.543 419.876 154.148 419.588 153.856C419.3 153.564 418.91 153.399 418.502 153.398Z" fill="#E6E6E6"/>
<path d="M418.502 176.142H405.332C404.925 176.144 404.536 176.309 404.248 176.601C403.961 176.893 403.8 177.288 403.8 177.701V191.042C403.8 191.246 403.839 191.448 403.916 191.637C403.992 191.826 404.105 191.998 404.247 192.143C404.39 192.287 404.559 192.402 404.745 192.481C404.931 192.559 405.13 192.6 405.332 192.6H418.502C418.91 192.6 419.301 192.435 419.589 192.143C419.878 191.851 420.04 191.455 420.04 191.042V177.701C420.039 177.288 419.876 176.892 419.588 176.6C419.3 176.308 418.91 176.144 418.502 176.142Z" fill="white"/>
<path d="M418.502 198.887H405.332C405.13 198.887 404.931 198.927 404.745 199.006C404.559 199.084 404.39 199.199 404.247 199.344C404.105 199.489 403.992 199.66 403.916 199.849C403.839 200.038 403.8 200.241 403.8 200.445V213.786C403.8 213.99 403.839 214.193 403.916 214.382C403.992 214.571 404.105 214.742 404.247 214.887C404.39 215.032 404.559 215.147 404.745 215.225C404.931 215.304 405.13 215.344 405.332 215.344H418.502C418.91 215.344 419.301 215.18 419.589 214.888C419.878 214.596 420.04 214.199 420.04 213.786V200.445C420.04 200.032 419.878 199.636 419.589 199.343C419.301 199.051 418.91 198.887 418.502 198.887Z" fill="#6C63FF"/>
<path d="M446.156 107.909H432.985C432.579 107.91 432.189 108.075 431.902 108.367C431.615 108.659 431.453 109.055 431.454 109.467V122.814C431.454 123.226 431.615 123.621 431.902 123.912C432.19 124.203 432.579 124.366 432.985 124.366H446.156C446.563 124.367 446.953 124.203 447.241 123.912C447.529 123.621 447.692 123.226 447.693 122.814V109.467C447.692 109.054 447.53 108.659 447.242 108.367C446.954 108.075 446.563 107.91 446.156 107.909Z" fill="#6C63FF"/>
<path d="M446.156 130.653H432.985C432.579 130.655 432.189 130.82 431.902 131.112C431.615 131.404 431.453 131.799 431.454 132.212V145.559C431.454 145.97 431.615 146.365 431.902 146.656C432.19 146.947 432.579 147.111 432.985 147.111H446.156C446.563 147.111 446.953 146.948 447.241 146.657C447.529 146.366 447.692 145.971 447.693 145.559V132.212C447.692 131.799 447.53 131.403 447.242 131.111C446.954 130.819 446.563 130.654 446.156 130.653Z" fill="#6C63FF"/>
<path d="M446.156 153.398H432.985C432.579 153.399 432.189 153.564 431.902 153.856C431.615 154.148 431.453 154.544 431.454 154.956V168.297C431.453 168.501 431.492 168.704 431.569 168.893C431.646 169.082 431.758 169.253 431.901 169.398C432.043 169.543 432.212 169.658 432.398 169.736C432.584 169.815 432.784 169.855 432.985 169.855H446.156C446.563 169.855 446.954 169.691 447.243 169.399C447.531 169.107 447.693 168.71 447.693 168.297V154.956C447.692 154.543 447.53 154.148 447.242 153.856C446.954 153.564 446.563 153.399 446.156 153.398Z" fill="#E6E6E6"/>
<path d="M446.156 176.142H432.985C432.579 176.144 432.189 176.309 431.902 176.601C431.615 176.893 431.453 177.288 431.454 177.701V191.042C431.453 191.246 431.492 191.448 431.569 191.637C431.646 191.826 431.758 191.998 431.901 192.143C432.043 192.287 432.212 192.402 432.398 192.481C432.584 192.559 432.784 192.6 432.985 192.6H446.156C446.563 192.6 446.954 192.435 447.243 192.143C447.531 191.851 447.693 191.455 447.693 191.042V177.701C447.692 177.288 447.53 176.892 447.242 176.6C446.954 176.308 446.563 176.144 446.156 176.142Z" fill="#6C63FF"/>
<path d="M446.156 198.887H432.985C432.784 198.887 432.584 198.927 432.398 199.006C432.212 199.084 432.043 199.199 431.901 199.344C431.758 199.489 431.646 199.66 431.569 199.849C431.492 200.038 431.453 200.241 431.454 200.445V213.786C431.453 213.99 431.492 214.193 431.569 214.382C431.646 214.571 431.758 214.742 431.901 214.887C432.043 215.032 432.212 215.147 432.398 215.225C432.584 215.304 432.784 215.344 432.985 215.344H446.156C446.563 215.344 446.954 215.18 447.243 214.888C447.531 214.595 447.693 214.199 447.693 213.786V200.445C447.693 200.032 447.531 199.636 447.243 199.343C446.954 199.051 446.563 198.887 446.156 198.887Z" fill="#6C63FF"/>
<path d="M473.809 107.909H460.639C460.232 107.91 459.842 108.075 459.555 108.367C459.268 108.659 459.107 109.055 459.107 109.467V122.814C459.107 123.226 459.268 123.621 459.556 123.912C459.843 124.203 460.232 124.366 460.639 124.366H473.809C474.216 124.367 474.606 124.203 474.894 123.912C475.182 123.621 475.345 123.226 475.346 122.814V109.467C475.345 109.054 475.183 108.659 474.895 108.367C474.607 108.075 474.216 107.91 473.809 107.909Z" fill="#E6E6E6"/>
<path d="M473.809 130.653H460.639C460.232 130.655 459.842 130.82 459.555 131.112C459.268 131.404 459.107 131.799 459.107 132.212V145.559C459.107 145.97 459.268 146.365 459.556 146.656C459.843 146.947 460.232 147.111 460.639 147.111H473.809C474.216 147.111 474.606 146.948 474.894 146.657C475.182 146.366 475.345 145.971 475.346 145.559V132.212C475.345 131.799 475.183 131.403 474.895 131.111C474.607 130.819 474.216 130.654 473.809 130.653Z" fill="#6C63FF"/>
<path d="M473.809 153.398H460.639C460.232 153.399 459.842 153.564 459.555 153.856C459.268 154.148 459.107 154.544 459.107 154.956V168.297C459.106 168.501 459.146 168.704 459.222 168.893C459.299 169.082 459.412 169.253 459.554 169.398C459.696 169.543 459.865 169.658 460.051 169.736C460.237 169.815 460.437 169.855 460.639 169.855H473.809C474.217 169.855 474.608 169.691 474.896 169.399C475.184 169.107 475.346 168.71 475.346 168.297V154.956C475.345 154.543 475.183 154.148 474.895 153.856C474.607 153.564 474.216 153.399 473.809 153.398Z" fill="#6C63FF"/>
<path d="M473.809 176.142H460.639C460.232 176.144 459.842 176.309 459.555 176.601C459.268 176.893 459.107 177.288 459.107 177.701V191.042C459.106 191.246 459.146 191.448 459.222 191.637C459.299 191.826 459.412 191.998 459.554 192.143C459.696 192.287 459.865 192.402 460.051 192.481C460.237 192.559 460.437 192.6 460.639 192.6H473.809C474.217 192.6 474.608 192.435 474.896 192.143C475.184 191.851 475.346 191.455 475.346 191.042V177.701C475.345 177.288 475.183 176.892 474.895 176.6C474.607 176.308 474.216 176.144 473.809 176.142Z" fill="#6C63FF"/>
<path d="M473.809 198.887H460.639C460.437 198.887 460.237 198.927 460.051 199.006C459.865 199.084 459.696 199.199 459.554 199.344C459.412 199.489 459.299 199.66 459.222 199.849C459.146 200.038 459.106 200.241 459.107 200.445V213.786C459.106 213.99 459.146 214.193 459.222 214.382C459.299 214.571 459.412 214.742 459.554 214.887C459.696 215.032 459.865 215.147 460.051 215.225C460.237 215.304 460.437 215.344 460.639 215.344H473.809C474.217 215.344 474.608 215.18 474.896 214.888C475.184 214.595 475.346 214.199 475.346 213.786V200.445C475.346 200.032 475.184 199.636 474.896 199.343C474.608 199.051 474.217 198.887 473.809 198.887Z" fill="#E6E6E6"/>
<path d="M501.462 107.909H488.292C487.885 107.91 487.496 108.075 487.208 108.367C486.921 108.659 486.76 109.055 486.76 109.467V122.814C486.76 123.226 486.922 123.621 487.209 123.912C487.496 124.203 487.886 124.366 488.292 124.366H501.462C501.869 124.367 502.259 124.203 502.548 123.912C502.836 123.621 502.998 123.226 503 122.814V109.467C502.999 109.054 502.836 108.659 502.548 108.367C502.26 108.075 501.87 107.91 501.462 107.909Z" fill="#E6E6E6"/>
<path d="M501.462 130.653H488.292C487.885 130.655 487.496 130.82 487.208 131.112C486.921 131.404 486.76 131.799 486.76 132.212V145.559C486.76 145.97 486.922 146.365 487.209 146.656C487.496 146.947 487.886 147.111 488.292 147.111H501.462C501.869 147.111 502.259 146.948 502.548 146.657C502.836 146.366 502.998 145.971 503 145.559V132.212C502.999 131.799 502.836 131.403 502.548 131.111C502.26 130.819 501.87 130.654 501.462 130.653Z" fill="#E6E6E6"/>
<path d="M501.462 153.398H488.292C487.885 153.399 487.496 153.564 487.208 153.856C486.921 154.148 486.76 154.544 486.76 154.956V168.297C486.76 168.501 486.799 168.704 486.876 168.893C486.952 169.082 487.065 169.253 487.207 169.398C487.35 169.543 487.519 169.658 487.705 169.736C487.891 169.815 488.09 169.855 488.292 169.855H501.462C501.87 169.855 502.261 169.691 502.549 169.399C502.838 169.107 503 168.71 503 168.297V154.956C502.999 154.543 502.836 154.148 502.548 153.856C502.26 153.564 501.87 153.399 501.462 153.398Z" fill="#6C63FF"/>
<path d="M501.462 176.142H488.292C487.885 176.144 487.496 176.309 487.208 176.601C486.921 176.893 486.76 177.288 486.76 177.701V191.042C486.76 191.246 486.799 191.448 486.876 191.637C486.952 191.826 487.065 191.998 487.207 192.143C487.35 192.287 487.519 192.402 487.705 192.481C487.891 192.559 488.09 192.6 488.292 192.6H501.462C501.87 192.6 502.261 192.435 502.549 192.143C502.838 191.851 503 191.455 503 191.042V177.701C502.999 177.288 502.836 176.892 502.548 176.6C502.26 176.308 501.87 176.144 501.462 176.142Z" fill="#E6E6E6"/>
<path d="M501.462 198.887H488.292C488.09 198.887 487.891 198.927 487.705 199.006C487.519 199.084 487.35 199.199 487.207 199.344C487.065 199.489 486.952 199.66 486.876 199.849C486.799 200.038 486.76 200.241 486.76 200.445V213.786C486.76 213.99 486.799 214.193 486.876 214.382C486.952 214.571 487.065 214.742 487.207 214.887C487.35 215.032 487.519 215.147 487.705 215.225C487.891 215.304 488.09 215.344 488.292 215.344H501.462C501.87 215.344 502.261 215.18 502.549 214.888C502.838 214.595 503 214.199 503 213.786V200.445C503 200.032 502.838 199.636 502.549 199.343C502.261 199.051 501.87 198.887 501.462 198.887Z" fill="#E6E6E6"/>
<path d="M198.763 395.587H198.396L198.71 395.545L198.763 395.587Z" fill="#2F2E41"/>
<path d="M167.254 146.868C189.569 146.868 207.659 128.535 207.659 105.921C207.659 83.3064 189.569 64.9738 167.254 64.9738C144.939 64.9738 126.849 83.3064 126.849 105.921C126.849 128.535 144.939 146.868 167.254 146.868Z" fill="#FFB6B6"/>
<path d="M202.637 75.8992C202.637 75.8992 213.205 55.4256 189.956 53.5643C189.956 53.5643 170.135 35.3434 149.933 50.2332C149.933 50.2332 138.913 50.2333 132.888 62.8705C132.888 62.8705 124.221 59.5394 122.316 68.4542C122.316 68.4542 115.974 87.0666 122.316 103.818C128.658 120.569 130.764 122.43 130.764 122.43C130.764 122.43 120.344 87.3105 145.709 85.4492C171.074 83.5879 199.458 67.5236 201.572 87.9972C203.686 108.471 206.867 113.515 206.867 113.515C206.867 113.515 226.945 84.2748 202.637 75.8992Z" fill="#2F2E41"/>
<path d="M271.773 206.834L271.642 207.529L270.182 215.344L260.087 269.404L259.489 272.586L258.236 279.317L256.521 288.498L252.718 308.846L251.63 314.677L251.222 316.864L251.08 317.632L249.95 323.667L249.607 325.489L246.851 346.184L244.444 364.217L252.499 372.38L247.697 377.247L244.545 395.544L244.551 395.586H115.906C110.702 392.17 105.572 388.648 100.518 385.02L101.576 376.989C101.576 376.989 105.219 362.647 103.688 360.933C102.162 359.219 98.8145 356.156 98.8145 356.156L103.031 346.184L103.617 344.799L102.635 324.164L102.611 323.667L102.286 316.864L102.245 315.989L102.18 314.677L100.932 288.498L100.908 288.067L100.53 280.132L100.175 272.586L100.021 269.404L98.5012 237.561L97.4721 215.938L96.5732 197.113L100.187 195.872L138.834 182.561L154.843 161.471L188.162 161.722L204.472 161.848L231.688 187.428L237.88 190.424L237.927 190.448L242.369 192.6L253.629 198.048L265.534 203.813L271.643 206.768L271.773 206.834Z" fill="#CACACA"/>
<path d="M159.148 334.156C156.707 335.115 154.087 335.519 151.475 335.341C148.862 335.162 146.32 334.406 144.027 333.124C141.734 331.842 139.747 330.067 138.204 327.923C136.662 325.778 135.602 323.317 135.1 320.713L72.082 311.652L93.9888 286.539L150.473 298.994C154.846 298.428 159.272 299.508 162.912 302.029C166.552 304.549 169.153 308.336 170.222 312.67C171.291 317.004 170.755 321.585 168.714 325.545C166.673 329.505 163.269 332.569 159.148 334.156V334.156Z" fill="#FFB6B6"/>
<path d="M131.051 288.498C129.883 286.999 128.231 285.965 126.385 285.58L100.529 280.132L97.8739 279.574C96.3307 279.248 94.8729 278.595 93.596 277.658C92.319 276.722 91.2516 275.522 90.4637 274.138C89.6463 272.686 89.1519 271.07 89.0148 269.404C88.8915 267.889 89.0705 266.364 89.5411 264.921L98.5007 237.561L104.314 219.809C105.019 217.668 105.434 215.441 105.55 213.187C105.874 206.949 103.97 200.803 100.186 195.872C96.8597 191.539 92.2461 188.404 87.0268 186.932C81.8075 185.46 76.2593 185.728 71.2021 187.697C71.0542 187.751 70.9005 187.811 70.7526 187.871C67.1258 189.339 63.8854 191.641 61.2877 194.596C58.6899 197.551 56.8059 201.078 55.7845 204.898L49.4685 228.182L36.4401 276.182C35.1359 280.991 34.8725 286.029 35.6677 290.951C36.463 295.873 38.2982 300.563 41.0478 304.699C43.7974 308.836 47.3965 312.322 51.5986 314.918C55.8008 317.514 60.5068 319.159 65.3946 319.741L102.634 324.164L119.868 326.214C121.86 326.457 123.87 325.93 125.497 324.738C127.123 323.546 128.247 321.777 128.644 319.783C128.672 319.675 128.693 319.565 128.709 319.454L129.123 316.864L132.63 295.061L132.665 294.839C132.848 293.727 132.799 292.588 132.521 291.495C132.243 290.403 131.742 289.382 131.051 288.498Z" fill="#CACACA"/>
<path d="M199.288 334.855C201.839 335.455 204.488 335.481 207.05 334.931C209.611 334.381 212.023 333.269 214.114 331.672C216.206 330.076 217.927 328.034 219.155 325.691C220.384 323.347 221.091 320.76 221.226 318.11L282.353 300.133L257.171 278.402L202.984 298.804C198.576 298.869 194.344 300.571 191.092 303.587C187.839 306.602 185.791 310.722 185.335 315.166C184.88 319.61 186.048 324.068 188.62 327.697C191.192 331.326 194.988 333.873 199.288 334.855V334.855Z" fill="#FFB6B6"/>
<path d="M312.703 259.922L283.63 192.114C281.252 186.547 277.005 182.014 271.642 179.319C269.985 178.492 268.244 177.849 266.45 177.401C266.172 177.329 265.894 177.263 265.616 177.209C261.812 176.368 257.867 176.442 254.096 177.425C250.649 178.322 247.428 179.946 244.642 182.19C241.856 184.434 239.568 187.248 237.927 190.448C237.909 190.475 237.893 190.503 237.88 190.532C236.047 194.125 235.073 198.104 235.035 202.148C234.997 206.192 235.896 210.189 237.661 213.816L238.022 214.547L258.567 256.362C259.268 257.792 259.664 259.356 259.727 260.952C259.79 262.548 259.519 264.139 258.933 265.621C258.347 267.103 257.458 268.443 256.324 269.552C255.191 270.662 253.839 271.516 252.357 272.059L250.914 272.586L224.964 282.086C223.017 282.79 221.415 284.232 220.496 286.109C219.577 287.986 219.413 290.151 220.038 292.148L220.103 292.358L227.377 315.948C227.412 316.055 227.448 316.163 227.489 316.271C227.553 316.475 227.632 316.673 227.726 316.864C228.499 318.622 229.865 320.042 231.579 320.869C233.293 321.696 235.242 321.876 237.076 321.377L251.08 317.632L253.936 316.864L290.1 307.185C294.858 305.911 299.288 303.61 303.088 300.439C306.887 297.268 309.965 293.303 312.112 288.815C314.258 284.326 315.422 279.421 315.524 274.434C315.626 269.447 314.664 264.497 312.703 259.922L312.703 259.922Z" fill="#CACACA"/>
<path d="M26.5522 316.865C34.9325 327.223 43.9704 337.017 53.6084 346.184H320.899C323.474 346.188 325.943 347.227 327.763 349.073C329.584 350.919 330.607 353.421 330.61 356.031L330.994 424.672C347.438 417.016 362.837 407.24 376.809 395.586C380.689 392.356 384.448 388.986 388.087 385.476C390.47 383.186 392.796 380.841 395.065 378.44C412.076 360.481 425.851 339.641 435.765 316.865H26.5522Z" fill="#3F3D56"/>
<path d="M395.065 378.44C392.8 380.843 390.474 383.188 388.087 385.476H331.189V378.44H395.065Z" fill="white"/>
<path d="M271.24 153.398C270.959 152.872 270.543 152.433 270.036 152.127C269.529 151.821 268.95 151.66 268.36 151.66H74.4785C73.6092 151.662 72.7763 152.014 72.1622 152.637C71.5481 153.26 71.2029 154.105 71.2021 154.986V272.586H271.642V154.986C271.645 154.43 271.507 153.883 271.24 153.398Z" fill="#3F3D56"/>
<path d="M71.0264 269.402V283.914C71.0264 284.516 71.1433 285.112 71.3705 285.668C71.5976 286.223 71.9306 286.728 72.3504 287.154C72.7701 287.579 73.2685 287.917 73.8169 288.147C74.3654 288.377 74.9532 288.496 75.5469 288.496H149.528V317.135H148.545C148.468 317.135 148.392 317.151 148.32 317.181C148.249 317.211 148.184 317.254 148.13 317.31C148.075 317.365 148.032 317.431 148.002 317.503C147.973 317.575 147.958 317.652 147.958 317.731V319.723C147.958 319.801 147.973 319.878 148.002 319.95C148.032 320.023 148.075 320.088 148.13 320.143C148.184 320.199 148.249 320.242 148.32 320.272C148.392 320.302 148.468 320.318 148.545 320.318H194.471C194.549 320.318 194.625 320.302 194.696 320.272C194.767 320.242 194.832 320.199 194.887 320.143C194.941 320.088 194.985 320.023 195.014 319.95C195.044 319.878 195.059 319.801 195.059 319.723V317.731C195.059 317.652 195.044 317.575 195.014 317.503C194.985 317.431 194.941 317.365 194.887 317.31C194.832 317.254 194.767 317.211 194.696 317.181C194.625 317.151 194.549 317.135 194.471 317.135H193.489V288.496H267.47C268.063 288.496 268.651 288.377 269.2 288.147C269.748 287.917 270.246 287.579 270.666 287.154C271.086 286.728 271.419 286.223 271.646 285.668C271.873 285.112 271.99 284.516 271.99 283.914V269.402H71.0264Z" fill="#3F3D56"/>
<path d="M169.08 227.751C179.305 227.751 187.595 219.35 187.595 208.988C187.595 198.626 179.305 190.225 169.08 190.225C158.855 190.225 150.566 198.626 150.566 208.988C150.566 219.35 158.855 227.751 169.08 227.751Z" fill="#6C63FF"/>
<path d="M216.253 103.684H213.296C213.296 81.0289 191.172 66.1836 168.853 66.1716C165.607 66.1619 162.367 66.4812 159.184 67.1245C155.6 67.8497 151.88 68.7187 148.225 69.8514C133.813 74.3284 120.448 82.9827 120.448 103.684C120.445 107.704 120.949 111.708 121.95 115.598L119.087 116.353C118.026 112.216 117.489 107.958 117.491 103.684C117.491 85.5958 124.818 73.1717 137.474 65.764C144.127 61.8684 152.247 59.3572 161.549 58.1346C165.42 57.6127 169.334 57.4922 173.229 57.775C198.896 59.6449 216.253 79.5905 216.253 103.684Z" fill="#6C63FF"/>
<path d="M221.179 105.344L220.014 96.6174C219.727 94.4137 218.679 92.3841 217.057 90.8879C216.016 89.9124 214.769 89.1897 213.412 88.7744C212.054 88.3591 210.621 88.262 209.221 88.4905L207.37 88.7483C206.864 88.8158 206.375 88.9846 205.934 89.2449C205.492 89.5052 205.106 89.8518 204.798 90.2646C204.487 90.6759 204.259 91.1456 204.128 91.6466C203.997 92.1476 203.965 92.6698 204.035 93.1833L206.726 113.285C206.836 114.104 207.199 114.867 207.761 115.466C208.324 116.065 209.058 116.47 209.86 116.623C210.097 116.671 210.339 116.695 210.581 116.695C210.756 116.695 210.929 116.683 211.102 116.659L213.172 116.377C214.434 116.208 215.648 115.778 216.74 115.115C217.833 114.453 218.78 113.571 219.523 112.524C219.683 112.296 219.837 112.062 219.979 111.822C221.087 109.861 221.51 107.579 221.179 105.344Z" fill="#6C63FF"/>
<path d="M206.176 89.1138C205.633 89.3812 205.16 89.7756 204.798 90.2645C204.487 90.6759 204.259 91.1456 204.128 91.6466C203.997 92.1475 203.965 92.6698 204.035 93.1833L206.726 113.285C206.836 114.104 207.199 114.867 207.761 115.466C208.324 116.065 209.058 116.47 209.86 116.623L206.176 89.1138Z" fill="white"/>
<path d="M221.179 105.344L220.014 96.6174C219.726 94.4137 218.679 92.3841 217.057 90.8878L219.736 110.887C219.776 111.208 219.857 111.523 219.978 111.822C221.087 109.861 221.51 107.579 221.179 105.344Z" fill="#3F3D56"/>
<path d="M211.971 111.631C212.78 111.52 213.187 109.568 212.88 107.272C212.572 104.976 211.667 103.205 210.858 103.317C210.049 103.428 209.642 105.379 209.95 107.675C210.257 109.971 211.162 111.742 211.971 111.631Z" fill="#3F3D56"/>
<path d="M210.197 100.843C211.006 100.732 211.413 98.7804 211.106 96.4844C210.798 94.1885 209.893 92.4174 209.084 92.5286C208.275 92.6399 207.868 94.5913 208.176 96.8873C208.483 99.1832 209.388 100.954 210.197 100.843Z" fill="#3F3D56"/>
<path d="M221.433 105.038C222.242 104.927 222.649 102.976 222.342 100.68C222.034 98.3838 221.129 96.6128 220.32 96.724C219.511 96.8352 219.104 98.7867 219.411 101.083C219.719 103.379 220.624 105.15 221.433 105.038Z" fill="#3F3D56"/>
<path d="M168.852 66.1716C165.606 66.1619 162.367 66.4812 159.183 67.1245C155.599 67.8497 151.879 68.7187 148.225 69.8514C142.518 69.5698 138.319 68.0714 137.473 65.764C144.126 61.8684 152.246 59.3572 161.549 58.1346C165.42 57.6127 169.333 57.4922 173.229 57.775C173.641 58.02 173.998 58.3506 174.275 58.7452C174.552 59.1398 174.744 59.5894 174.837 60.0644C175.115 62.1501 172.767 64.3676 168.852 66.1716Z" fill="#3F3D56"/>
<path d="M131.098 124.48L126.545 105.296C126.382 104.604 126.022 103.975 125.508 103.49C124.995 103.005 124.351 102.685 123.659 102.569C123.463 102.538 123.265 102.522 123.067 102.521C122.788 102.522 122.51 102.556 122.239 102.623L120.477 103.054C118.208 103.61 116.249 105.056 115.031 107.074C113.812 109.092 113.434 111.517 113.978 113.818L116.018 122.425C116.484 124.451 117.593 126.266 119.176 127.591C119.432 127.801 119.701 127.995 119.98 128.172C120.972 128.802 122.077 129.224 123.232 129.413C124.387 129.603 125.568 129.556 126.704 129.275L128.461 128.843C128.925 128.734 129.362 128.527 129.744 128.238C130.312 127.818 130.744 127.237 130.985 126.568C131.226 125.899 131.266 125.172 131.098 124.48Z" fill="#6C63FF"/>
<path d="M121.552 120.911C122.346 120.717 122.556 118.734 122.021 116.481C121.486 114.229 120.409 112.559 119.615 112.753C118.821 112.947 118.611 114.93 119.146 117.182C119.681 119.435 120.758 121.104 121.552 120.911Z" fill="#3F3D56"/>
<path d="M115.638 122.709C116.432 122.515 116.642 120.532 116.107 118.279C115.572 116.027 114.495 114.357 113.701 114.551C112.907 114.745 112.697 116.728 113.232 118.98C113.767 121.233 114.844 122.902 115.638 122.709Z" fill="#3F3D56"/>
<path d="M131.388 124.408L126.835 105.224C126.657 104.475 126.266 103.796 125.709 103.271C125.153 102.747 124.456 102.4 123.706 102.275L129.922 128.478C130.535 128.022 131.002 127.392 131.263 126.668C131.524 125.944 131.568 125.158 131.388 124.408Z" fill="white"/>
<path d="M115.007 110.018C114.881 109.485 114.645 108.984 114.315 108.55C113.674 110.23 113.557 112.068 113.977 113.818L116.018 122.424C116.484 124.451 117.593 126.266 119.176 127.591L115.007 110.018Z" fill="#3F3D56"/>
</g>
<defs>
<clipPath id="clip0_55_309">
<rect width="503" height="444" fill="white"/>
</clipPath>
</defs>
</svg>
