<svg width="547" height="370" viewBox="0 0 547 370" fill="none" xmlns="http://www.w3.org/2000/svg">
<g clip-path="url(#clip0_68_490)">
<path d="M36.8118 278.816C34.2144 278.816 31.6116 278.923 29.0698 279.139L28.6999 279.17C11.8401 280.661 -0.492096 289.309 0.0150911 299.288L0.113142 301.092C0.177802 302.233 0.246694 303.459 0.3034 304.819C0.334113 305.49 1.24943 306.005 2.38836 306.005H417.099C446.338 305.828 475.471 305.604 503.684 305.341C508.975 305.352 514.263 305.078 519.525 304.52C527.366 303.592 532.808 301.752 536.163 298.896H536.164C540.338 295.353 540.469 290.892 540.217 285.853C539.703 275.676 539.193 264.985 538.684 254.327C538.235 244.933 537.787 235.565 537.34 226.596C537.063 221.273 536.448 216.575 531.709 212.984C526.573 209.101 517.205 207.132 503.865 207.132C503.704 207.132 503.544 207.132 503.381 207.133C461.576 207.282 420.153 221.659 400.308 242.91C398.022 245.357 395.893 247.977 393.833 250.511C390.79 254.254 387.644 258.124 383.89 261.585C381.857 263.484 379.659 265.198 377.321 266.706C377.16 266.818 376.976 266.937 376.781 267.05C376.334 267.341 375.868 267.621 375.413 267.871C372.751 269.409 369.945 270.685 367.036 271.681L366.743 271.779C366.522 271.858 366.282 271.937 366.043 272.009C364.363 272.549 362.617 273.015 360.869 273.392C353.304 275.06 344.702 275.46 335.303 274.58C326.671 273.749 318.15 272.013 309.882 269.398C301.178 266.647 293.031 263.216 285.153 259.899C281.692 258.442 278.112 256.935 274.538 255.507C273.866 255.238 273.205 254.976 272.534 254.713C268.168 253.011 264.209 251.606 260.433 250.416C251.076 247.457 241.391 245.663 231.595 245.074C221.198 244.504 212.036 245.578 204.369 248.258C202.255 248.994 200.197 249.881 198.21 250.912C189.13 255.628 183.532 262.59 178.118 269.322C171.384 277.695 164.421 286.355 150.671 290.843C134.805 296.028 111.646 293.874 95.2609 290.128C90.1094 288.95 84.9644 287.596 79.9884 286.285C77.9787 285.755 75.9676 285.229 73.9551 284.707C70.0003 283.686 66.7637 282.903 63.7693 282.243L62.8222 282.032C62.2954 281.918 61.7681 281.803 61.2312 281.694C57.6745 280.947 54.3627 280.36 51.1011 279.897L50.3295 279.785C48.7825 279.581 47.3362 279.411 45.9169 279.269L45.3503 279.212C42.5706 278.948 39.6938 278.816 36.8118 278.816Z" fill="#F2F2F2"/>
<path d="M465.646 289.952C477.315 279.435 494.672 274.146 509.232 280.044C494.297 288.337 482.776 301.647 476.709 317.618C474.391 323.786 472.455 330.888 466.754 334.19C463.207 336.245 458.794 336.345 454.816 335.353C450.839 334.361 447.193 332.373 443.597 330.404L442.574 330.381C447.167 315.356 453.977 300.47 465.646 289.952Z" fill="#E6E6E6"/>
<path d="M509.15 280.363C496.256 282.03 484.214 287.718 474.735 296.62C472.661 298.5 470.896 300.695 469.505 303.125C468.226 305.536 467.616 308.245 467.739 310.971C467.802 313.516 468.161 316.111 467.604 318.626C467.3 319.91 466.729 321.114 465.927 322.161C465.125 323.208 464.11 324.073 462.951 324.7C460.101 326.338 456.833 326.855 453.62 327.249C450.052 327.686 446.34 328.084 443.252 330.085C442.877 330.328 442.523 329.733 442.897 329.491C448.27 326.009 455.069 327.276 460.846 324.952C463.542 323.867 465.928 321.963 466.772 319.085C467.51 316.569 467.142 313.892 467.056 311.316C466.898 308.659 467.393 306.002 468.497 303.58C469.76 301.087 471.438 298.827 473.459 296.897C477.939 292.48 483.086 288.795 488.71 285.977C495.112 282.724 502.023 280.592 509.144 279.671C509.584 279.614 509.588 280.307 509.15 280.363H509.15Z" fill="white"/>
<path d="M477.618 293.574C476.341 291.78 475.743 289.591 475.93 287.397C476.118 285.203 477.079 283.148 478.642 281.597C478.959 281.284 479.46 281.763 479.142 282.076C477.684 283.517 476.789 285.432 476.618 287.476C476.448 289.519 477.014 291.556 478.213 293.219C478.473 293.58 477.877 293.933 477.618 293.574V293.574Z" fill="white"/>
<path d="M467.537 309.686C471.968 310.471 476.532 309.557 480.319 307.126C480.694 306.884 481.049 307.479 480.674 307.72C476.728 310.243 471.977 311.184 467.367 310.357C466.928 310.278 467.1 309.607 467.537 309.686V309.686Z" fill="white"/>
<path d="M495.169 283.641C495.518 284.438 496.06 285.135 496.746 285.671C497.432 286.207 498.24 286.563 499.098 286.709C499.538 286.783 499.366 287.454 498.928 287.381C497.981 287.215 497.089 286.82 496.33 286.23C495.571 285.64 494.968 284.873 494.574 283.996C494.53 283.916 494.518 283.823 494.54 283.735C494.562 283.647 494.617 283.57 494.694 283.521C494.773 283.475 494.867 283.461 494.956 283.483C495.045 283.506 495.121 283.562 495.169 283.641V283.641Z" fill="white"/>
<path d="M525.264 330.765C524.987 330.727 524.711 330.689 524.431 330.655C520.717 330.162 516.968 329.971 513.223 330.085C512.933 330.09 512.64 330.098 512.351 330.111C503.33 330.482 494.457 332.525 486.182 336.136C482.891 337.576 479.713 339.264 476.678 341.186C472.486 343.841 468.152 347.052 463.466 348.135C462.979 348.254 462.484 348.342 461.986 348.399L442.625 331.632C442.6 331.571 442.571 331.515 442.546 331.455L441.743 330.821C441.892 330.711 442.05 330.6 442.199 330.49C442.286 330.426 442.377 330.365 442.463 330.301C442.522 330.259 442.582 330.218 442.633 330.177C442.652 330.163 442.672 330.149 442.688 330.14C442.739 330.099 442.79 330.066 442.837 330.03C443.716 329.407 444.601 328.79 445.492 328.177C445.496 328.173 445.496 328.173 445.504 328.172C452.247 323.441 459.527 319.527 467.192 316.512C467.422 316.425 467.655 316.333 467.894 316.254C471.346 314.97 474.897 313.971 478.511 313.266C480.492 312.886 482.49 312.607 484.499 312.429C489.69 311.98 494.919 312.351 499.995 313.527C510.114 315.874 519.369 321.432 524.851 330.099C524.991 330.321 525.127 330.539 525.264 330.765Z" fill="#E6E6E6"/>
<path d="M525.007 330.973C513.708 324.539 500.67 321.829 487.744 323.228C484.955 323.48 482.225 324.17 479.651 325.273C477.179 326.428 475.061 328.224 473.518 330.474C472.037 332.544 470.761 334.832 468.803 336.505C467.788 337.347 466.606 337.964 465.336 338.317C464.065 338.67 462.735 338.75 461.431 338.552C458.17 338.145 455.25 336.589 452.447 334.969C449.335 333.169 446.132 331.251 442.461 330.99C442.016 330.958 442.091 330.269 442.535 330.301C448.922 330.756 453.588 335.862 459.6 337.486C462.405 338.243 465.456 338.16 467.862 336.37C469.967 334.806 471.284 332.447 472.766 330.339C474.239 328.121 476.233 326.298 478.573 325.029C481.082 323.799 483.782 323.005 486.557 322.681C492.793 321.852 499.121 322.009 505.308 323.146C512.377 324.405 519.179 326.864 525.419 330.416C525.805 330.636 525.391 331.192 525.007 330.973V330.973Z" fill="white"/>
<path d="M491.88 322.533C491.939 320.332 492.779 318.223 494.249 316.585C495.72 314.946 497.724 313.883 499.906 313.586C500.347 313.528 500.459 314.211 500.017 314.27C497.985 314.542 496.118 315.533 494.752 317.061C493.386 318.59 492.611 320.557 492.568 322.607C492.558 323.053 491.87 322.976 491.88 322.533V322.533Z" fill="white"/>
<path d="M474.131 329.326C477.196 332.621 481.391 334.64 485.878 334.979C486.323 335.013 486.248 335.701 485.804 335.668C481.135 335.306 476.774 333.196 473.592 329.76C473.289 329.432 473.83 329 474.131 329.326H474.131Z" fill="white"/>
<path d="M511.871 325.17C511.67 326.017 511.683 326.901 511.908 327.741C512.134 328.582 512.564 329.353 513.161 329.986C513.468 330.31 512.927 330.742 512.622 330.421C511.965 329.718 511.491 328.865 511.24 327.937C510.989 327.009 510.969 326.033 511.182 325.096C511.195 325.006 511.242 324.924 511.312 324.867C511.383 324.81 511.473 324.782 511.564 324.789C511.655 324.799 511.738 324.845 511.796 324.916C511.853 324.988 511.88 325.079 511.871 325.17V325.17Z" fill="white"/>
<path d="M160.172 300.412C169.727 285.916 186.82 275.431 204.032 277.687C190.366 290.713 181.746 308.154 179.699 326.924C178.935 334.166 178.84 342.3 173.661 347.418C170.439 350.603 165.747 351.938 161.217 351.984C156.687 352.03 152.235 350.917 147.841 349.813L146.741 350.072C147.474 332.725 150.617 314.908 160.172 300.412Z" fill="#E6E6E6"/>
<path d="M204.034 278.051C190.706 283.422 179.409 292.856 171.748 305.014C170.052 307.603 168.774 310.442 167.963 313.428C167.266 316.362 167.367 319.429 168.256 322.311C169.031 325.015 170.137 327.69 170.242 330.535C170.273 331.993 169.997 333.44 169.43 334.783C168.864 336.125 168.02 337.333 166.954 338.327C164.362 340.872 161.011 342.333 157.683 343.649C153.989 345.109 150.129 346.568 147.383 349.568C147.05 349.931 146.506 349.394 146.838 349.031C151.616 343.811 159.24 343.274 164.773 339.181C167.355 337.271 169.377 334.571 169.479 331.258C169.569 328.361 168.431 325.601 167.622 322.87C166.714 320.071 166.504 317.093 167.012 314.195C167.669 311.177 168.835 308.293 170.459 305.667C174.022 299.696 178.502 294.322 183.734 289.743C189.676 284.483 196.475 280.279 203.834 277.312C204.29 277.129 204.486 277.869 204.034 278.051L204.034 278.051Z" fill="white"/>
<path d="M173.985 300.954C172.12 299.392 170.871 297.217 170.461 294.818C170.051 292.42 170.507 289.953 171.748 287.86C172 287.437 172.669 287.81 172.416 288.233C171.257 290.18 170.833 292.478 171.219 294.71C171.605 296.943 172.776 298.964 174.522 300.409C174.9 300.724 174.361 301.267 173.985 300.954V300.954Z" fill="white"/>
<path d="M167.682 320.992C172.64 320.599 177.268 318.351 180.642 314.697C180.976 314.335 181.52 314.872 181.187 315.234C177.668 319.03 172.848 321.359 167.688 321.757C167.196 321.795 167.193 321.029 167.682 320.992H167.682Z" fill="white"/>
<path d="M189.992 285.448C190.587 286.203 191.361 286.798 192.244 287.18C193.126 287.562 194.089 287.719 195.047 287.636C195.539 287.592 195.541 288.358 195.053 288.401C193.994 288.488 192.93 288.313 191.954 287.893C190.979 287.473 190.12 286.821 189.455 285.993C189.385 285.92 189.346 285.823 189.346 285.723C189.345 285.622 189.383 285.525 189.451 285.452C189.522 285.38 189.619 285.339 189.72 285.338C189.822 285.338 189.919 285.377 189.992 285.448H189.992Z" fill="white"/>
<path d="M235.287 327.474C234.981 327.51 234.675 327.546 234.366 327.588C230.256 328.094 226.194 328.933 222.22 330.097C221.911 330.183 221.6 330.273 221.294 330.367C211.75 333.274 202.828 337.928 194.982 344.093C191.862 346.549 188.933 349.238 186.221 352.139C182.477 356.144 178.735 360.785 174.024 363.247C173.536 363.51 173.031 363.741 172.514 363.941L147.143 351.395C147.1 351.338 147.054 351.286 147.01 351.229L145.974 350.774C146.104 350.615 146.241 350.452 146.371 350.293C146.445 350.2 146.526 350.11 146.6 350.017C146.652 349.956 146.704 349.896 146.747 349.838C146.764 349.817 146.781 349.797 146.796 349.782C146.839 349.724 146.885 349.675 146.925 349.623C147.692 348.713 148.467 347.806 149.249 346.903C149.252 346.897 149.252 346.897 149.26 346.895C155.239 340.031 161.843 333.606 169.213 328.389C169.434 328.232 169.659 328.069 169.892 327.918C173.227 325.584 176.747 323.527 180.416 321.767C182.429 320.81 184.489 319.955 186.588 319.206C192.015 317.282 197.711 316.223 203.467 316.069C214.942 315.763 226.387 319.132 234.66 326.876C234.872 327.074 235.078 327.27 235.287 327.474Z" fill="#E6E6E6"/>
<path d="M235.07 327.768C221.196 324.03 206.497 324.76 193.061 329.854C190.149 330.899 187.421 332.397 184.975 334.292C182.652 336.215 180.887 338.725 179.862 341.561C178.854 344.187 178.126 346.989 176.497 349.324C175.645 350.506 174.553 351.495 173.292 352.226C172.032 352.957 170.631 353.413 169.182 353.565C165.58 354.036 162.025 353.185 158.576 352.231C154.748 351.173 150.788 350.013 146.789 350.755C146.304 350.844 146.193 350.087 146.677 349.998C153.634 348.707 160.045 352.87 166.926 352.934C170.137 352.963 173.377 352.025 175.453 349.442C177.268 347.182 178.021 344.293 179.02 341.626C179.979 338.844 181.604 336.34 183.754 334.331C186.095 332.318 188.762 330.717 191.64 329.599C198.079 326.977 204.891 325.384 211.825 324.878C219.735 324.257 227.694 324.994 235.356 327.058C235.83 327.185 235.541 327.895 235.07 327.768V327.768Z" fill="white"/>
<path d="M197.291 327.959C196.743 325.588 197.055 323.1 198.172 320.938C199.288 318.776 201.137 317.081 203.387 316.157C203.843 315.971 204.153 316.671 203.696 316.857C201.599 317.714 199.877 319.293 198.842 321.308C197.806 323.323 197.524 325.642 198.048 327.847C198.161 328.326 197.404 328.435 197.291 327.959H197.291Z" fill="white"/>
<path d="M180.198 340.163C184.393 342.834 189.441 343.826 194.335 342.941C194.82 342.853 194.931 343.61 194.447 343.698C189.352 344.61 184.102 343.567 179.742 340.777C179.327 340.511 179.785 339.898 180.198 340.163V340.163Z" fill="white"/>
<path d="M219.406 325.217C219.428 326.179 219.687 327.12 220.162 327.956C220.636 328.793 221.311 329.498 222.126 330.009C222.544 330.27 222.085 330.882 221.67 330.623C220.772 330.055 220.028 329.275 219.501 328.352C218.975 327.429 218.683 326.391 218.65 325.329C218.638 325.229 218.665 325.129 218.725 325.048C218.785 324.967 218.873 324.912 218.972 324.894C219.072 324.88 219.174 324.906 219.256 324.966C219.337 325.027 219.391 325.117 219.406 325.217V325.217Z" fill="white"/>
<path d="M228.176 191.732C228.81 191.101 229.298 190.339 229.606 189.499C229.914 188.659 230.033 187.761 229.957 186.87C229.88 185.979 229.609 185.115 229.163 184.34C228.716 183.565 228.105 182.897 227.373 182.384L237.359 134.043L226.585 137.443L218.551 184.208C217.77 185.496 217.489 187.026 217.76 188.507C218.031 189.988 218.836 191.319 220.023 192.246C221.209 193.174 222.694 193.633 224.197 193.539C225.7 193.444 227.116 192.801 228.176 191.732V191.732Z" fill="#FFB6B6"/>
<path d="M251.258 62.5166L244.584 57.4778C244.584 57.4778 238.697 57.0608 237.654 67.6802C236.612 78.2997 230.083 119.057 230.083 119.057L219.871 166.367L234.007 169.47L244.945 118.415L255.895 83.1915L251.258 62.5166Z" fill="#E6E6E6"/>
<path d="M246.174 150.056L214.16 125.159C213.662 124.77 213.338 124.199 213.259 123.572C213.181 122.945 213.354 122.312 213.742 121.812L235.523 93.7929C235.912 93.2942 236.483 92.97 237.11 92.8915C237.737 92.813 238.37 92.9866 238.869 93.3742L270.883 118.272C271.381 118.66 271.706 119.231 271.784 119.858C271.863 120.486 271.689 121.119 271.302 121.618L249.52 149.637C249.131 150.136 248.561 150.46 247.933 150.539C247.306 150.617 246.673 150.444 246.174 150.056V150.056Z" fill="#3F3D56"/>
<path d="M245.998 147.48L216.7 124.695C216.258 124.349 215.97 123.843 215.9 123.286C215.831 122.729 215.985 122.167 216.329 121.723L236.075 96.3224C236.42 95.8796 236.926 95.5917 237.483 95.522C238.04 95.4523 238.602 95.6064 239.046 95.9505L268.343 118.736C268.786 119.081 269.074 119.588 269.144 120.145C269.213 120.702 269.059 121.264 268.715 121.707L248.969 147.108C248.624 147.551 248.117 147.839 247.56 147.908C247.004 147.978 246.442 147.824 245.998 147.48V147.48Z" fill="white"/>
<path d="M220.542 124.048C220.431 123.962 220.359 123.836 220.342 123.696C220.324 123.557 220.363 123.417 220.449 123.306L230.41 110.492C230.496 110.381 230.623 110.309 230.762 110.291C230.831 110.283 230.901 110.288 230.968 110.306C231.035 110.325 231.098 110.356 231.153 110.399C231.207 110.441 231.253 110.495 231.288 110.555C231.322 110.615 231.344 110.682 231.353 110.751C231.361 110.82 231.356 110.89 231.338 110.957C231.32 111.024 231.288 111.087 231.245 111.142L221.284 123.956C221.198 124.066 221.071 124.138 220.932 124.156C220.793 124.173 220.652 124.135 220.542 124.048V124.048Z" fill="#E4E4E4"/>
<path d="M222.192 125.332C222.082 125.246 222.01 125.12 221.992 124.98C221.975 124.841 222.013 124.7 222.1 124.59L232.061 111.776C232.147 111.665 232.274 111.593 232.413 111.575C232.552 111.558 232.693 111.597 232.803 111.683C232.914 111.769 232.986 111.896 233.004 112.035C233.021 112.174 232.983 112.315 232.896 112.426L222.935 125.239C222.849 125.35 222.722 125.422 222.583 125.44C222.444 125.457 222.303 125.418 222.192 125.332Z" fill="#E4E4E4"/>
<path d="M229.487 119.357C229.376 119.271 229.304 119.144 229.287 119.005C229.269 118.866 229.308 118.725 229.394 118.614L233.712 113.06C233.755 113.005 233.808 112.959 233.868 112.924C233.928 112.89 233.995 112.868 234.064 112.859C234.133 112.85 234.203 112.855 234.27 112.874C234.337 112.892 234.4 112.923 234.455 112.966C234.51 113.009 234.556 113.062 234.59 113.123C234.625 113.183 234.647 113.25 234.656 113.319C234.664 113.388 234.659 113.458 234.64 113.525C234.622 113.592 234.59 113.655 234.548 113.71L230.23 119.264C230.143 119.375 230.017 119.447 229.877 119.464C229.738 119.482 229.598 119.443 229.487 119.357V119.357Z" fill="#E4E4E4"/>
<path d="M231.712 130.257C231.602 130.171 231.53 130.044 231.512 129.905C231.495 129.766 231.534 129.625 231.62 129.514L247.345 109.285C247.388 109.23 247.441 109.184 247.501 109.15C247.562 109.116 247.628 109.094 247.697 109.085C247.766 109.076 247.836 109.081 247.903 109.1C247.97 109.118 248.033 109.15 248.088 109.192C248.143 109.235 248.189 109.288 248.223 109.348C248.258 109.409 248.28 109.475 248.288 109.544C248.297 109.613 248.292 109.683 248.273 109.75C248.255 109.817 248.224 109.88 248.181 109.935L232.455 130.164C232.369 130.275 232.242 130.347 232.103 130.364C231.964 130.382 231.823 130.343 231.712 130.257V130.257Z" fill="#E4E4E4"/>
<path d="M233.364 131.541C233.253 131.455 233.181 131.328 233.164 131.189C233.146 131.05 233.185 130.909 233.271 130.798L248.997 110.569C249.039 110.514 249.092 110.468 249.153 110.434C249.213 110.4 249.28 110.377 249.349 110.369C249.418 110.36 249.488 110.365 249.555 110.384C249.622 110.402 249.684 110.434 249.739 110.476C249.794 110.519 249.84 110.572 249.875 110.632C249.909 110.693 249.931 110.759 249.94 110.828C249.948 110.897 249.943 110.967 249.925 111.034C249.906 111.101 249.875 111.164 249.832 111.219L234.107 131.448C234.02 131.559 233.894 131.631 233.754 131.648C233.615 131.666 233.475 131.627 233.364 131.541V131.541Z" fill="#E4E4E4"/>
<path d="M237.111 134.456C237.001 134.37 236.929 134.243 236.911 134.104C236.894 133.964 236.932 133.824 237.018 133.713L252.744 113.484C252.787 113.429 252.84 113.383 252.9 113.349C252.961 113.314 253.027 113.292 253.096 113.284C253.165 113.275 253.235 113.28 253.302 113.298C253.369 113.317 253.432 113.348 253.487 113.391C253.542 113.434 253.588 113.487 253.622 113.547C253.656 113.608 253.679 113.674 253.687 113.743C253.696 113.812 253.691 113.882 253.672 113.949C253.654 114.016 253.623 114.079 253.58 114.134L237.854 134.363C237.768 134.474 237.641 134.546 237.502 134.563C237.363 134.58 237.222 134.542 237.111 134.456V134.456Z" fill="#E4E4E4"/>
<path d="M238.762 135.74C238.652 135.654 238.58 135.527 238.562 135.388C238.545 135.248 238.583 135.108 238.669 134.997L254.395 114.768C254.438 114.713 254.491 114.667 254.551 114.633C254.612 114.598 254.678 114.576 254.747 114.568C254.816 114.559 254.886 114.564 254.953 114.582C255.02 114.601 255.083 114.632 255.138 114.675C255.193 114.718 255.239 114.771 255.273 114.831C255.307 114.892 255.329 114.958 255.338 115.027C255.347 115.096 255.342 115.166 255.323 115.233C255.305 115.3 255.273 115.363 255.231 115.418L239.505 135.647C239.419 135.758 239.292 135.83 239.153 135.847C239.014 135.864 238.873 135.826 238.762 135.74V135.74Z" fill="#E4E4E4"/>
<path d="M242.51 138.654C242.399 138.568 242.327 138.441 242.31 138.302C242.292 138.163 242.331 138.022 242.417 137.912L258.143 117.682C258.185 117.628 258.238 117.582 258.299 117.547C258.359 117.513 258.426 117.491 258.495 117.482C258.564 117.473 258.634 117.479 258.701 117.497C258.768 117.515 258.83 117.547 258.885 117.589C258.94 117.632 258.986 117.685 259.021 117.746C259.055 117.806 259.077 117.873 259.086 117.942C259.094 118.011 259.089 118.081 259.071 118.148C259.052 118.215 259.021 118.277 258.978 118.332L243.253 138.561C243.166 138.672 243.04 138.744 242.9 138.762C242.761 138.779 242.621 138.74 242.51 138.654Z" fill="#E4E4E4"/>
<path d="M244.161 139.938C244.05 139.852 243.978 139.725 243.961 139.586C243.943 139.447 243.982 139.306 244.068 139.196L259.794 118.967C259.88 118.856 260.006 118.785 260.145 118.767C260.284 118.75 260.425 118.789 260.535 118.875C260.646 118.961 260.718 119.087 260.735 119.226C260.753 119.365 260.715 119.506 260.629 119.616L244.903 139.846C244.817 139.956 244.691 140.028 244.551 140.046C244.412 140.063 244.272 140.024 244.161 139.938V139.938Z" fill="#E4E4E4"/>
<path d="M217.878 163.432C217.998 163.432 218.095 163.334 218.095 163.214C218.095 163.094 217.998 162.997 217.878 162.997C217.758 162.997 217.661 163.094 217.661 163.214C217.661 163.334 217.758 163.432 217.878 163.432Z" fill="white"/>
<path d="M249.543 13.6647C248.779 17.7721 247.525 21.7733 245.81 25.5826C235.986 46.3694 263.962 39.594 273.96 39.594C284.892 39.594 295.35 45.3434 293.753 19.797C293.071 8.88474 284.892 0 273.96 0C264.623 0 251.495 4.15104 249.543 13.6647Z" fill="#2F2E41"/>
<path d="M284.15 318.532H274.836L270.404 282.601H284.15V318.532Z" fill="#FFB6B6"/>
<path d="M289.065 334.672H282.386L281.194 328.365L278.141 334.672H260.427C259.577 334.672 258.751 334.401 258.067 333.897C257.383 333.394 256.877 332.685 256.625 331.874C256.372 331.063 256.385 330.193 256.662 329.39C256.939 328.587 257.465 327.894 258.164 327.411L272.31 317.639V311.263L287.189 312.151L289.065 334.672Z" fill="#2F2E41"/>
<path d="M339.481 306.776L332.007 312.335L307.015 286.147L318.045 277.943L339.481 306.776Z" fill="#FFB6B6"/>
<path d="M353.055 316.794L347.695 320.78L342.976 316.43L344.288 323.314L330.073 333.886C329.392 334.393 328.566 334.669 327.717 334.673C326.868 334.678 326.04 334.41 325.353 333.911C324.667 333.411 324.158 332.705 323.901 331.895C323.645 331.086 323.653 330.215 323.926 329.411L329.448 313.126L325.644 308.01L338.114 299.842L353.055 316.794Z" fill="#2F2E41"/>
<path d="M253.647 153.166L297.858 146.279L289.066 119.824H253.647V153.166Z" fill="#FFB6B6"/>
<path d="M294.993 133.148C294.993 133.148 312.663 148.418 304.51 191.949L294.557 234.602L321.676 281.694L307.886 289.217L274.467 242.759L259.174 206.88L251.085 143.999L294.993 133.148Z" fill="#2F2E41"/>
<path d="M267.604 217.105L266.541 233.569L269.652 282.322L285.099 287.641L288.024 237.689L267.604 217.105Z" fill="#2F2E41"/>
<path d="M262.855 45.0732L279.944 45.7401L286.755 57.0483L302.294 60.0825L293.018 107.022L294.724 133.74L279.251 133.645C268.1 133.577 257.316 137.63 248.968 145.025V145.025L249.431 110.343L242.775 84.4537L244.271 57.3071L256.772 55.7442L262.855 45.0732Z" fill="#E6E6E6"/>
<path d="M272.323 39.5891C281.206 39.5891 288.406 32.3866 288.406 23.5018C288.406 14.6171 281.206 7.41455 272.323 7.41455C263.44 7.41455 256.239 14.6171 256.239 23.5018C256.239 32.3866 263.44 39.5891 272.323 39.5891Z" fill="#FFB6B6"/>
<path d="M261.4 7.103C264.219 5.38444 267.447 4.45479 270.747 4.41127C274.048 4.36775 277.3 5.21195 280.162 6.8556C283.025 8.49924 285.394 10.882 287.02 13.7546C288.647 16.6273 289.473 19.8844 289.41 23.1853C281.215 25.2434 272.605 26.8184 263.865 23.6776L261.801 18.625L260.584 23.6814C257.923 24.7695 255.254 25.6902 252.585 23.6708C252.477 20.3792 253.233 17.1166 254.78 14.2092C256.327 11.3018 258.61 8.8514 261.4 7.103Z" fill="#2F2E41"/>
<path d="M299.32 166.174L301.488 185.855C301.639 186.346 301.943 186.775 302.356 187.081C302.769 187.386 303.27 187.551 303.783 187.551H313.778C314.291 187.551 314.791 187.386 315.205 187.081C315.618 186.776 315.922 186.346 316.073 185.855L317.869 170.77C318.388 171.025 318.959 171.152 319.536 171.142C320.113 171.133 320.68 170.986 321.189 170.715C321.699 170.443 322.137 170.055 322.467 169.581C322.797 169.107 323.01 168.562 323.089 167.99C323.167 167.418 323.109 166.835 322.918 166.29C322.727 165.745 322.41 165.253 321.993 164.855C321.575 164.456 321.068 164.163 320.515 163.998C319.962 163.833 319.377 163.802 318.81 163.908C318.586 163.643 318.306 163.43 317.992 163.285C317.677 163.139 317.334 163.064 316.987 163.065H301.615C301.239 163.065 300.869 163.153 300.533 163.323C300.198 163.492 299.907 163.738 299.683 164.04C299.46 164.343 299.311 164.693 299.248 165.064C299.184 165.434 299.209 165.815 299.32 166.174V166.174ZM318.183 169.75L319.283 166.174C319.41 165.761 319.423 165.322 319.319 164.902C319.366 164.9 319.411 164.888 319.458 164.888C320.149 164.888 320.811 165.163 321.3 165.651C321.788 166.14 322.063 166.802 322.063 167.493C322.063 168.184 321.788 168.847 321.3 169.335C320.811 169.824 320.149 170.098 319.458 170.098C319.01 170.095 318.571 169.975 318.183 169.75V169.75Z" fill="#6C63FF"/>
<path d="M314.39 187.564C313.759 186.93 313.275 186.165 312.972 185.324C312.669 184.482 312.553 183.584 312.635 182.693C312.716 181.803 312.991 180.94 313.441 180.167C313.892 179.395 314.506 178.73 315.241 178.22L305.5 129.83L316.257 133.284L324.054 180.09C324.828 181.381 325.102 182.912 324.823 184.392C324.544 185.872 323.732 187.199 322.541 188.12C321.35 189.041 319.862 189.493 318.36 189.391C316.858 189.289 315.445 188.639 314.39 187.564V187.564Z" fill="#FFB6B6"/>
<path d="M295.62 65.1214L302.294 60.0825C302.294 60.0825 308.182 59.6655 309.224 70.285C310.267 80.9044 316.796 121.662 316.796 121.662L327.008 168.971L312.871 172.075L301.933 121.019L290.984 85.7962L295.62 65.1214Z" fill="#E6E6E6"/>
<path d="M238.021 109.171C240.107 109.171 241.798 107.48 241.798 105.393C241.798 103.306 240.107 101.614 238.021 101.614C235.934 101.614 234.243 103.306 234.243 105.393C234.243 107.48 235.934 109.171 238.021 109.171Z" fill="#6C63FF"/>
<path d="M117.552 362.367L125.425 362.366L129.17 331.992L117.55 331.993L117.552 362.367Z" fill="#FFB6B6"/>
<path d="M115.543 359.796L117.76 359.796L126.411 356.276L131.048 359.795H131.049C133.67 359.795 136.183 360.836 138.036 362.69C139.889 364.543 140.93 367.057 140.93 369.678V369.999L115.544 370L115.543 359.796Z" fill="#2F2E41"/>
<path d="M148.061 357.404L155.741 359.139L166.084 330.336L154.749 327.776L148.061 357.404Z" fill="#FFB6B6"/>
<path d="M146.669 354.454L148.83 354.942L158.045 353.416L161.793 357.869L161.794 357.87C164.35 358.447 166.572 360.017 167.971 362.233C169.37 364.449 169.832 367.13 169.255 369.687L169.185 370L144.422 364.408L146.669 354.454Z" fill="#2F2E41"/>
<path d="M103.138 206.127L110.258 285.91C110.258 285.91 107.59 333.807 116.198 350.662H128.681L134.862 281.535L135.638 235.137L162.402 274.282L145.356 349.532L160.72 350.906L188.382 269.242L157.992 192.578L103.138 206.127Z" fill="#2F2E41"/>
<path d="M110.594 79.0752C120.735 79.0752 128.955 70.8532 128.955 60.7107C128.955 50.5683 120.735 42.3462 110.594 42.3462C100.454 42.3462 92.2339 50.5683 92.2339 60.7107C92.2339 70.8532 100.454 79.0752 110.594 79.0752Z" fill="#FFB8B8"/>
<path d="M142.871 96.5756L127.808 90.1112L120.475 82.332L102.157 85.287L97.2972 93.6221L81.564 108.255L99.9972 191.619L99.4392 209.827C99.4392 209.827 111.237 215.139 162.402 202.908C163.016 202.761 161.731 202.119 161.731 202.119L142.871 96.5756Z" fill="#3F3D56"/>
<path d="M91.5025 71.1311C91.3745 70.9564 91.2478 70.7804 91.1224 70.6028C91.0719 70.7094 91.0318 70.8196 90.9741 70.9237L91.5025 71.1311Z" fill="#2F2E41"/>
<path d="M128.859 47.2778C127.632 44.6036 125.443 42.4892 122.729 41.3546C120.038 40.2692 117.032 40.2718 114.343 41.3619C111.916 39.828 109.219 38.612 106.379 38.4614C103.538 38.3108 100.535 39.3647 98.7849 41.6847C98.394 42.2972 97.9501 42.874 97.4582 43.4087C96.0512 44.7119 93.913 44.5239 92.0429 44.2574C92.8817 44.9765 93.7207 45.6955 94.5599 46.4146C93.5446 46.6799 92.5292 46.9452 91.5136 47.2105C92.6986 47.9293 93.8835 48.6481 95.0682 49.3669C91.6284 51.432 90.0649 55.9394 90.4779 60.033C90.8686 63.9087 92.7394 67.4528 94.9757 70.6028C95.8678 68.7198 95.6756 66.4667 95.6609 64.346C95.6455 62.1052 96.0418 59.5607 97.837 58.3083C99.048 57.4636 100.605 57.4258 102.065 57.4338C109.431 57.4743 116.789 57.9337 124.103 58.8099C125.095 58.8529 126.063 59.1336 126.924 59.6285C128.542 60.7321 128.857 63.0097 129.019 65.0078C129.874 61.7086 130.292 58.3115 130.263 54.9035C130.335 52.2912 129.857 49.693 128.859 47.2778V47.2778Z" fill="#2F2E41"/>
<path d="M134.575 262.055C150.535 262.055 163.473 249.114 163.473 233.151C163.473 217.187 150.535 204.246 134.575 204.246C118.615 204.246 105.677 217.187 105.677 233.151C105.677 249.114 118.615 262.055 134.575 262.055Z" fill="white"/>
<path d="M134.575 203.604C133.089 203.604 131.606 203.715 130.137 203.938C129.386 204.047 128.654 204.188 127.928 204.361C122.597 205.591 117.712 208.277 113.818 212.121C109.925 215.966 107.175 220.816 105.877 226.132C104.579 231.448 104.783 237.02 106.467 242.227C108.151 247.434 111.247 252.07 115.412 255.619C115.906 256.036 116.407 256.441 116.927 256.826C120.677 259.622 125.036 261.488 129.647 262.269C134.257 263.051 138.988 262.726 143.448 261.322C147.909 259.917 151.973 257.473 155.305 254.191C158.637 250.909 161.142 246.883 162.614 242.443C164.086 238.003 164.483 233.277 163.772 228.654C163.061 224.031 161.263 219.643 158.525 215.851C155.788 212.058 152.189 208.971 148.025 206.841C143.861 204.712 139.251 203.603 134.575 203.604V203.604ZM134.575 261.413C128.567 261.419 122.715 259.499 117.878 255.934C117.351 255.548 116.844 255.15 116.35 254.726C112.292 251.303 109.282 246.805 107.663 241.748C106.045 236.691 105.884 231.281 107.199 226.137C108.515 220.993 111.253 216.325 115.1 212.666C118.947 209.008 123.747 206.508 128.949 205.453C129.668 205.306 130.388 205.19 131.12 205.1C132.266 204.958 133.42 204.887 134.575 204.888C142.069 204.888 149.256 207.866 154.555 213.166C159.854 218.466 162.831 225.655 162.831 233.15C162.831 240.646 159.854 247.835 154.555 253.135C149.256 258.435 142.069 261.413 134.575 261.413V261.413Z" fill="#3F3D56"/>
<path d="M120.401 227.37H148.749C149.788 227.37 150.629 226.528 150.629 225.489V225.396C150.629 224.358 149.788 223.516 148.749 223.516H120.401C119.362 223.516 118.52 224.358 118.52 225.396V225.489C118.52 226.528 119.362 227.37 120.401 227.37Z" fill="#6C63FF"/>
<path d="M120.401 235.077H148.749C149.788 235.077 150.629 234.235 150.629 233.197V233.104C150.629 232.066 149.788 231.223 148.749 231.223H120.401C119.362 231.223 118.52 232.066 118.52 233.104V233.197C118.52 234.235 119.362 235.077 120.401 235.077Z" fill="#6C63FF"/>
<path d="M120.401 242.785H148.749C149.788 242.785 150.629 241.943 150.629 240.905V240.812C150.629 239.774 149.788 238.931 148.749 238.931H120.401C119.362 238.931 118.52 239.774 118.52 240.812V240.905C118.52 241.943 119.362 242.785 120.401 242.785Z" fill="#6C63FF"/>
<path d="M457.884 361.386L449.628 361.386L445.701 329.537L457.885 329.537L457.884 361.386Z" fill="#9E616A"/>
<path d="M418.828 361.386L410.573 361.386L406.646 329.537L418.83 329.537L418.828 361.386Z" fill="#9E616A"/>
<path d="M419.118 370L393.732 369.999V369.678C393.733 367.057 394.774 364.543 396.627 362.69C398.48 360.836 400.993 359.795 403.613 359.795H403.614L408.251 356.276L416.903 359.796L419.119 359.796L419.118 370Z" fill="#2F2E41"/>
<path d="M459.233 370L433.847 369.999V369.678C433.847 367.057 434.888 364.543 436.741 362.69C438.594 360.836 441.108 359.795 443.728 359.795H443.729L448.366 356.276L457.018 359.796L459.234 359.796L459.233 370Z" fill="#2F2E41"/>
<path d="M410.73 172.893L398.184 249.305L401.598 260.692L397.118 268.756L403.697 339.58L401.026 345.462L408.489 350.065H423.673L424.479 285.947L428.23 276.534V271.345L435.866 232.248L437.272 287.001L439.493 296.43L437.627 303.143L440.065 307.846L446.54 351.462H463.567L462.251 341.315C463.734 340.564 464.925 339.341 465.638 337.839C466.35 336.336 466.544 334.64 466.187 333.016L465.211 328.568L467.433 315.418L471.479 242.053L470.338 182.856L450.42 167.622L410.73 172.893Z" fill="#2F2E41"/>
<path d="M439.493 74.7702C448.23 74.7702 455.313 67.6861 455.313 58.9474C455.313 50.2086 448.23 43.1245 439.493 43.1245C430.756 43.1245 423.674 50.2086 423.674 58.9474C423.674 67.6861 430.756 74.7702 439.493 74.7702Z" fill="#9E616A"/>
<path d="M404.929 203.215C405.618 202.504 406.142 201.65 406.465 200.714C406.788 199.778 406.901 198.783 406.798 197.798C406.695 196.813 406.377 195.863 405.866 195.015C405.356 194.166 404.666 193.44 403.845 192.887L409.997 169.619L398.145 173.606L394.12 195.091C393.283 196.532 393.003 198.231 393.334 199.864C393.666 201.498 394.584 202.954 395.917 203.955C397.249 204.957 398.903 205.435 400.564 205.298C402.225 205.162 403.778 204.421 404.929 203.215H404.929Z" fill="#9E616A"/>
<path d="M411.403 91.5004L408.859 90.9724L406.69 92.174C406.69 92.174 400.629 100.256 400.629 107.665C400.629 115.073 393.222 186.466 393.222 186.466L406.69 192.528L417.464 136.626L411.403 91.5004Z" fill="#E6E6E6"/>
<path d="M453.347 47.3463C453.347 47.3463 457.484 39.4348 448.381 38.7156C448.381 38.7156 440.621 31.6747 432.712 37.4284C432.712 37.4284 428.397 37.4284 426.038 42.3117C426.038 42.3117 422.645 41.0245 421.899 44.4694C421.899 44.4694 419.416 51.6616 421.899 58.1346C424.382 64.6076 425.207 65.3268 425.207 65.3268C425.207 65.3268 421.127 51.7558 431.058 51.0366C440.989 50.3174 452.102 44.1098 452.93 52.0212C453.757 59.9326 455.003 61.8819 455.003 61.8819C455.003 61.8819 462.863 50.5828 453.347 47.3463Z" fill="#2F2E41"/>
<path d="M511.134 268.756C509.94 268.758 508.787 268.318 507.898 267.521L460.023 224.896C459.058 224.035 458.474 222.826 458.399 221.535C458.324 220.244 458.764 218.976 459.623 218.01L490.292 183.549C491.153 182.584 492.361 182 493.652 181.924C494.943 181.849 496.21 182.29 497.177 183.148L545.052 225.775C546.018 226.635 546.603 227.843 546.678 229.135C546.753 230.426 546.312 231.694 545.452 232.66L514.783 267.121C514.358 267.601 513.843 267.992 513.266 268.271C512.689 268.55 512.063 268.712 511.423 268.748C511.327 268.754 511.23 268.756 511.134 268.756Z" fill="white"/>
<path d="M511.134 269.07C509.863 269.072 508.636 268.604 507.69 267.756L459.815 225.131C458.788 224.214 458.167 222.928 458.087 221.554C458.007 220.18 458.475 218.83 459.389 217.801L490.058 183.34C490.974 182.313 492.26 181.692 493.634 181.612C495.008 181.532 496.357 182 497.386 182.914L545.261 225.54C546.289 226.456 546.911 227.742 546.991 229.116C547.071 230.491 546.602 231.841 545.687 232.869L515.017 267.33C514.565 267.841 514.017 268.256 513.403 268.554C512.789 268.851 512.123 269.023 511.442 269.061C511.339 269.067 511.236 269.07 511.134 269.07ZM493.937 182.856C493.381 182.855 492.832 182.972 492.324 183.199C491.817 183.426 491.364 183.759 490.995 184.174L460.326 218.635C459.632 219.415 459.277 220.439 459.338 221.481C459.398 222.523 459.87 223.499 460.648 224.194L508.523 266.819C508.909 267.163 509.36 267.428 509.848 267.597C510.336 267.767 510.853 267.839 511.369 267.809C511.885 267.779 512.39 267.648 512.856 267.422C513.321 267.197 513.737 266.882 514.081 266.496L544.75 232.035C545.444 231.255 545.8 230.232 545.74 229.189C545.679 228.147 545.207 227.171 544.427 226.477L496.552 183.851C495.832 183.209 494.901 182.855 493.937 182.856H493.937Z" fill="#3F3D56"/>
<path d="M528.495 236.12C527.977 236.121 527.478 235.931 527.092 235.587L489.513 202.127C489.305 201.943 489.135 201.72 489.013 201.47C488.892 201.22 488.821 200.949 488.804 200.672C488.787 200.395 488.826 200.117 488.917 199.854C489.008 199.592 489.15 199.35 489.334 199.143C489.519 198.935 489.743 198.766 489.993 198.645C490.243 198.525 490.514 198.454 490.792 198.439C491.069 198.423 491.346 198.462 491.608 198.554C491.871 198.646 492.112 198.789 492.319 198.974L529.899 232.434C530.219 232.718 530.444 233.093 530.546 233.509C530.647 233.925 530.62 234.361 530.468 234.761C530.316 235.161 530.045 235.505 529.693 235.748C529.34 235.991 528.922 236.12 528.495 236.12V236.12Z" fill="#6C63FF"/>
<path d="M521.326 244.174C520.809 244.175 520.31 243.985 519.924 243.641L482.345 210.181C482.138 209.997 481.969 209.773 481.848 209.524C481.728 209.275 481.657 209.004 481.641 208.727C481.625 208.45 481.664 208.173 481.755 207.911C481.846 207.65 481.988 207.408 482.172 207.201C482.356 206.994 482.579 206.826 482.829 206.705C483.078 206.584 483.349 206.514 483.626 206.498C483.902 206.482 484.179 206.52 484.441 206.612C484.703 206.703 484.944 206.844 485.151 207.029L522.731 240.488C523.051 240.773 523.276 241.148 523.378 241.563C523.48 241.979 523.452 242.416 523.3 242.816C523.148 243.216 522.877 243.56 522.525 243.802C522.172 244.045 521.754 244.175 521.327 244.174H521.326Z" fill="#6C63FF"/>
<path d="M514.159 252.229C513.641 252.23 513.142 252.04 512.756 251.695L475.176 218.236C474.969 218.052 474.8 217.829 474.679 217.579C474.558 217.329 474.487 217.058 474.471 216.782C474.455 216.505 474.493 216.227 474.584 215.965C474.675 215.703 474.817 215.462 475.001 215.255C475.186 215.047 475.409 214.879 475.659 214.758C475.909 214.637 476.18 214.567 476.456 214.551C476.733 214.535 477.011 214.574 477.272 214.665C477.534 214.756 477.776 214.898 477.983 215.083L515.562 248.543C515.882 248.827 516.108 249.202 516.21 249.618C516.311 250.034 516.284 250.47 516.132 250.87C515.98 251.27 515.709 251.614 515.357 251.857C515.004 252.1 514.586 252.23 514.159 252.229H514.159Z" fill="#6C63FF"/>
<path d="M471.183 204.589C470.7 203.724 470.413 202.764 470.342 201.777C470.271 200.789 470.417 199.798 470.77 198.873C471.124 197.948 471.675 197.112 472.386 196.423C473.098 195.734 473.951 195.21 474.887 194.887L474.928 170.819L485.355 177.722L483.718 199.519C484.156 201.127 483.989 202.841 483.249 204.334C482.509 205.828 481.247 206.998 479.701 207.623C478.156 208.248 476.436 208.284 474.866 207.725C473.295 207.166 471.985 206.05 471.183 204.589H471.183Z" fill="#9E616A"/>
<path d="M472.146 98.096L476.805 93.605L480.227 96.0754C480.227 96.0754 483.594 100.117 486.287 112.24C488.981 124.363 486.287 191.041 486.287 191.041L471.473 189.021L473.493 153.998L467.433 124.363L472.146 98.096Z" fill="#E6E6E6"/>
<path d="M479.025 94.7004L463.331 87.202L452.675 77.3166L433.245 77.1711L426.977 85.3212L410.429 90.9433L413.187 148.014L411.307 152.402C411.307 152.402 412.617 153.586 413.216 154.248C413.814 154.91 412.388 160.452 412.388 160.452L411.585 166.482L413.814 168.075L410.916 171.5L410.196 176.897C410.196 176.897 460.788 164.32 470.347 185.155C470.852 186.256 469.608 175.498 469.608 175.498L468.365 167.622L469.599 160.552L471.479 158.672L468.325 155.517L470.347 140.55L479.025 94.7004Z" fill="#3F3D56"/>
<path d="M123.108 221.221C123.497 220.232 123.665 219.169 123.6 218.108C123.534 217.047 123.237 216.013 122.729 215.079C122.221 214.146 121.514 213.335 120.659 212.704C119.803 212.073 118.82 211.637 117.778 211.427L114.292 185.821L104.183 194.659L109.044 217.62C108.807 219.394 109.23 221.194 110.231 222.677C111.233 224.16 112.743 225.225 114.477 225.669C116.21 226.113 118.047 225.905 119.637 225.085C121.228 224.265 122.463 222.89 123.108 221.221V221.221Z" fill="#FFB8B8"/>
<path d="M83.5042 107.786L80.7642 108.311L79.1081 110.397C79.1081 110.397 76.4288 120.908 79.4809 128.254C82.533 135.6 104.6 209.439 104.6 209.439L120.451 209.899L108.103 150.031L83.5042 107.786Z" fill="#3F3D56"/>
<path d="M145.99 217.465C145.26 216.692 144.708 215.769 144.373 214.76C144.039 213.751 143.929 212.681 144.053 211.625C144.176 210.569 144.529 209.553 145.088 208.648C145.646 207.744 146.396 206.973 147.285 206.389L140.975 181.33L153.649 185.761L157.698 208.878C158.579 210.436 158.857 212.264 158.481 214.014C158.105 215.763 157.1 217.315 155.657 218.373C154.214 219.431 152.433 219.923 150.651 219.756C148.869 219.589 147.211 218.773 145.99 217.465V217.465Z" fill="#FFB8B8"/>
<path d="M140.452 97.4405L143.191 96.9058L145.505 98.2233C145.505 98.2233 151.909 106.977 151.815 114.932C151.722 122.886 158.771 199.63 158.771 199.63L144.235 205.968L133.375 145.813L140.452 97.4405Z" fill="#3F3D56"/>
</g>
<defs>
<clipPath id="clip0_68_490">
<rect width="547" height="370" fill="white"/>
</clipPath>
</defs>
</svg>
