<svg width="260" height="268" viewBox="0 0 260 268" fill="none" xmlns="http://www.w3.org/2000/svg">
<path d="M76.5099 81.6076C74.7272 91.4092 71.804 100.957 67.8027 110.047C44.8903 159.65 110.14 143.482 133.459 143.482C158.954 143.482 183.347 157.202 179.622 96.241C178.03 70.2014 158.954 49 133.459 49C111.682 49 81.0635 58.9055 76.5099 81.6076Z" fill="#2F2E41"/>
<path d="M130 143C150.435 143 167 125.763 167 104.5C167 83.237 150.435 66 130 66C109.565 66 93 83.237 93 104.5C93 125.763 109.565 143 130 143Z" fill="#FFB6B6"/>
<path d="M104.602 65.5271C111.182 61.3623 118.718 59.1094 126.423 59.0039C134.128 58.8984 141.719 60.9442 148.402 64.9275C155.085 68.9107 160.615 74.685 164.413 81.6466C168.211 88.6083 170.138 96.5015 169.992 104.501C150.86 109.489 130.76 113.306 110.356 105.694L105.538 93.4496L102.697 105.703C96.4835 108.34 90.2537 110.571 84.0241 105.678C83.7697 97.7007 85.5364 89.7941 89.1475 82.7483C92.7586 75.7024 98.0877 69.7642 104.602 65.5271Z" fill="#2F2E41"/>
<path d="M231 222.533C208.587 248.914 177.043 265.12 143.179 267.652C109.316 270.183 75.8474 258.838 50 236.064L61.0965 204.035C63.6042 198.346 67.5614 193.47 72.544 189.931C77.5265 186.391 83.3465 184.322 89.3796 183.944L96.4389 183.495L113.272 168.477C113.272 168.477 158.627 166.802 157.955 166L185.428 183.094L185.405 182.976L196.205 183.661C202.239 184.037 208.059 186.106 213.042 189.646C218.025 193.185 221.982 198.062 224.488 203.751L231 222.533Z" fill="#6C63FF"/>
</svg>
