<svg width="458" height="301" viewBox="0 0 458 301" fill="none" xmlns="http://www.w3.org/2000/svg">
<path d="M269.333 268.86C228.387 251.868 189.051 231.232 151.799 207.199C62.3438 149.658 1.34983 83.1034 0.0230718 41.5862C-0.364929 29.4519 4.14251 19.8289 13.4203 12.9861C28.4283 1.91569 55.1846 -0.740437 90.7987 5.29888L89.9191 10.4877C55.7469 4.69075 30.3743 7.0196 16.5441 17.2208C8.74244 22.9757 4.95363 31.1161 5.28253 41.4183C6.55661 81.2825 66.5815 146.126 154.646 202.773C191.628 226.633 230.679 247.121 271.328 263.99L269.333 268.86Z" fill="#010025"/>
<path d="M395.987 300.037C380.379 300.037 361.897 297.525 340.882 292.487L342.108 287.37C386.235 297.947 419.628 297.067 436.135 284.891C443.937 279.136 447.725 270.995 447.397 260.693C446.122 220.828 386.098 155.985 298.033 99.3394C253.399 70.6289 205.994 46.7183 160.942 30.1934L162.754 25.253C208.163 41.9089 255.926 65.9967 300.88 94.9129C390.335 152.454 451.329 219.008 452.656 260.525C453.044 272.66 448.537 282.283 439.259 289.125C429.405 296.393 414.781 300.037 395.987 300.037Z" fill="#010025"/>
<path d="M56.845 299.981C37.9986 299.982 23.2386 296.367 13.4203 289.125C4.14251 282.282 -0.364929 272.659 0.0230718 260.525C1.34983 219.007 62.3443 152.453 151.799 94.9123C251.777 30.6031 363.999 -7.50947 418.638 4.29508L417.527 9.43934C364.122 -2.10398 253.564 35.7105 154.646 99.3388C66.5815 155.985 6.55703 220.828 5.28253 260.693C4.95321 270.994 8.74244 279.135 16.5441 284.89C56.057 314.031 182.332 277.195 298.033 202.772C377.513 151.649 433.988 94.449 445.419 53.4944L450.488 54.9094C438.725 97.0528 381.398 155.407 300.88 207.199C244.216 243.647 183.287 272.29 129.318 287.85C101.286 295.933 76.7796 299.98 56.845 299.981Z" fill="#010025"/>
<path d="M126.753 31.5747C135.473 31.5747 142.541 24.5065 142.541 15.7874C142.541 7.06825 135.473 0 126.753 0C118.034 0 110.966 7.06825 110.966 15.7874C110.966 24.5065 118.034 31.5747 126.753 31.5747Z" fill="#010025"/>
<path d="M303.046 295.575C311.765 295.575 318.833 288.507 318.833 279.788C318.833 271.069 311.765 264 303.046 264C294.327 264 287.258 271.069 287.258 279.788C287.258 288.507 294.327 295.575 303.046 295.575Z" fill="#010025"/>
<path d="M441.624 39.4681C450.343 39.4681 457.411 32.3998 457.411 23.6807C457.411 14.9616 450.343 7.89332 441.624 7.89332C432.905 7.89332 425.836 14.9616 425.836 23.6807C425.836 32.3998 432.905 39.4681 441.624 39.4681Z" fill="#010025"/>
<path d="M366.806 138.471C368.359 136.019 370.3 134.1 372.63 132.714C374.959 131.274 377.548 130.555 380.395 130.555V145.028H376.745C373.432 145.028 370.947 145.774 369.291 147.267C367.634 148.706 366.806 151.265 366.806 154.943V175.653H353.528V131.034H366.806V138.471Z" fill="#010025"/>
<path d="M346.617 131.034V175.653H333.34V169.576C331.994 171.548 330.156 173.147 327.827 174.373C325.549 175.546 323.012 176.133 320.217 176.133C316.904 176.133 313.979 175.386 311.443 173.894C308.906 172.348 306.939 170.135 305.541 167.257C304.144 164.378 303.445 160.993 303.445 157.102V131.034H316.645V155.263C316.645 158.248 317.396 160.567 318.897 162.219C320.398 163.872 322.417 164.698 324.954 164.698C327.542 164.698 329.587 163.872 331.088 162.219C332.589 160.567 333.34 158.248 333.34 155.263V131.034H346.617Z" fill="#010025"/>
<path d="M295.369 164.058V175.653H288.614C283.8 175.653 280.047 174.453 277.355 172.055C274.663 169.602 273.317 165.631 273.317 160.14V142.389H268.037V131.034H273.317V120.16H286.595V131.034H295.292V142.389H286.595V160.3C286.595 161.633 286.906 162.592 287.527 163.179C288.148 163.765 289.183 164.058 290.633 164.058H295.369Z" fill="#010025"/>
<path d="M215.779 153.264C215.779 148.679 216.607 144.655 218.264 141.19C219.972 137.725 222.276 135.059 225.175 133.193C228.074 131.328 231.309 130.395 234.881 130.395C237.935 130.395 240.601 131.034 242.879 132.314C245.208 133.593 246.994 135.272 248.236 137.351V131.034H261.514V175.653H248.236V169.336C246.942 171.415 245.13 173.094 242.801 174.373C240.523 175.653 237.857 176.293 234.803 176.293C231.283 176.293 228.074 175.36 225.175 173.494C222.276 171.575 219.972 168.883 218.264 165.418C216.607 161.9 215.779 157.848 215.779 153.264ZM248.236 153.344C248.236 149.932 247.305 147.24 245.441 145.268C243.629 143.295 241.403 142.309 238.763 142.309C236.123 142.309 233.871 143.295 232.008 145.268C230.196 147.187 229.29 149.852 229.29 153.264C229.29 156.675 230.196 159.394 232.008 161.42C233.871 163.392 236.123 164.378 238.763 164.378C241.403 164.378 243.629 163.392 245.441 161.42C247.305 159.447 248.236 156.755 248.236 153.344Z" fill="#010025"/>
<path d="M158.319 152.624C158.319 153.903 158.242 155.236 158.086 156.622H128.036C128.243 159.394 129.098 161.526 130.599 163.019C132.152 164.458 134.041 165.178 136.267 165.178C139.58 165.178 141.884 163.739 143.178 160.86H157.31C156.585 163.792 155.265 166.431 153.35 168.776C151.486 171.122 149.131 172.961 146.284 174.294C143.437 175.626 140.253 176.293 136.733 176.293C132.488 176.293 128.709 175.36 125.396 173.494C122.083 171.628 119.495 168.963 117.631 165.498C115.768 162.033 114.836 157.981 114.836 153.344C114.836 148.706 115.742 144.655 117.554 141.19C119.417 137.725 122.006 135.059 125.319 133.193C128.632 131.328 132.436 130.395 136.733 130.395C140.926 130.395 144.653 131.301 147.914 133.113C151.176 134.926 153.712 137.511 155.524 140.87C157.387 144.228 158.319 148.146 158.319 152.624ZM144.731 149.026C144.731 146.68 143.954 144.814 142.401 143.428C140.848 142.042 138.907 141.349 136.578 141.349C134.352 141.349 132.462 142.016 130.909 143.348C129.408 144.681 128.476 146.574 128.114 149.026H144.731Z" fill="#010025"/>
<path d="M192.019 130.555C197.092 130.555 201.13 132.26 204.132 135.672C207.186 139.031 208.714 143.668 208.714 149.585V175.653H195.513V151.425C195.513 148.439 194.763 146.12 193.261 144.468C191.76 142.815 189.741 141.989 187.205 141.989C184.668 141.989 182.649 142.815 181.148 144.468C179.647 146.12 178.896 148.439 178.896 151.425V175.653H165.619V131.034H178.896V136.952C180.242 134.979 182.054 133.433 184.332 132.314C186.61 131.141 189.172 130.555 192.019 130.555Z" fill="#010025"/>
<path d="M91.6194 176.293C87.8405 176.293 84.4757 175.626 81.5251 174.294C78.5744 172.961 76.245 171.148 74.5367 168.856C72.8284 166.511 71.8708 163.899 71.6637 161.02H84.7863C84.9416 162.566 85.6405 163.819 86.8828 164.778C88.1252 165.738 89.6523 166.217 91.4641 166.217C93.1206 166.217 94.3889 165.898 95.2689 165.258C96.2007 164.565 96.6666 163.685 96.6666 162.619C96.6666 161.34 96.0195 160.407 94.7253 159.821C93.4312 159.181 91.3347 158.488 88.4358 157.742C85.3299 156.995 82.7416 156.222 80.671 155.423C78.6003 154.57 76.8144 153.264 75.3132 151.505C73.812 149.692 73.0614 147.267 73.0614 144.228C73.0614 141.669 73.7343 139.35 75.0803 137.271C76.4779 135.139 78.4968 133.46 81.1368 132.234C83.8287 131.008 87.0123 130.395 90.6876 130.395C96.123 130.395 100.394 131.781 103.5 134.553C106.657 137.325 108.469 141.003 108.935 145.587H96.6666C96.4595 144.041 95.7866 142.815 94.6477 141.909C93.5606 141.003 92.1112 140.55 90.2994 140.55C88.7464 140.55 87.5558 140.87 86.7275 141.509C85.8993 142.096 85.4852 142.922 85.4852 143.988C85.4852 145.268 86.1322 146.227 87.4264 146.867C88.7723 147.506 90.8429 148.146 93.6383 148.786C96.8477 149.639 99.4619 150.492 101.481 151.345C103.5 152.144 105.26 153.477 106.761 155.343C108.314 157.155 109.116 159.607 109.168 162.699C109.168 165.311 108.443 167.657 106.994 169.736C105.596 171.761 103.551 173.361 100.86 174.533C98.2195 175.706 95.1395 176.293 91.6194 176.293Z" fill="#010025"/>
</svg>
